<svg id="Layer_1" enable-background="new 0 0 512 512" height="512" viewBox="0 0 512 512" width="512" xmlns="http://www.w3.org/2000/svg"><path d="m106 0c-41.355 0-75 33.645-75 75 0 35.853 25.21 65.922 58.969 73.28l90.994-70.917c1.312-42.441-32.621-77.363-74.963-77.363z" fill="#a44f3e"/><path d="m116.388 118.819c-30.08 6.715-55.388-16.406-55.388-43.819 0-24.813 20.187-45 45-45 12.304 0 23.782 4.85 32.32 13.656 12.139 12.52 16.106 30.758 9.522 48.546z" fill="#883f2e"/><path d="m406 0c-42.293 0-76.276 34.872-74.964 77.363l90.995 70.917c33.797-7.367 58.969-37.469 58.969-73.28 0-41.355-33.645-75-75-75z" fill="#883f2e"/><path d="m365.607 95.768c-8.521-18.903-4.878-38.757 8.067-52.106 8.542-8.81 20.022-13.662 32.326-13.662 24.813 0 45 20.187 45 45 0 26.379-23.435 48.785-52.007 44.452z" fill="#6d3326"/><path d="m481 315v3.54l-1.58 3.17c-48.2 96.4-116.83 147.65-217.85 188.06l-5.57 2.23-5.57-2.23c-135.74-54.3-186.3-124.96-217.85-188.06l-1.58-3.17v-3.54c0-64.92 7.69-135.25 63.47-209.62 21.31-28.42 55.23-45.38 90.75-45.38 26.05 0 50.75 8.72 70.78 24.77 20.03-16.06 44.73-24.77 70.78-24.77 35.51 0 69.44 16.96 90.75 45.38 55.78 74.37 63.47 144.7 63.47 209.62z" fill="#bb5d4c"/><path d="m481 315v3.54l-1.58 3.17c-48.2 96.4-116.83 147.65-217.85 188.06l-5.57 2.23v-427.23c20.03-16.06 44.73-24.77 70.78-24.77 35.51 0 69.44 16.96 90.75 45.38 55.78 74.37 63.47 144.7 63.47 209.62z" fill="#a44f3e"/><path d="m270.55 420h-29.1c-62.83 0-108.18-60.06-90.9-120.52l14.54-50.91c11.47-40.13 48.17-68.57 90.91-68.57 41.74 0 79.16 27.48 90.91 68.57l14.54 50.91c17.26 60.42-28.03 120.52-90.9 120.52z" fill="#d9f2ff"/><path d="m270.55 420h-14.55v-240c41.74 0 79.16 27.48 90.91 68.57l14.54 50.91c17.26 60.42-28.03 120.52-90.9 120.52z" fill="#cdf"/><path d="m271 330v-8.79l33.25-33.25-4.83-9.67c-8.28-16.55-24.92-26.83-43.42-26.83s-35.14 10.28-43.42 26.83l-4.83 9.67 33.25 33.25v8.79h-31.7v30h93.4v-30z" fill="#53433f"/><path d="m181 150h30v30h-30z" fill="#53433f"/><g fill="#3e322e"><path d="m301 150h30v30h-30z"/><path d="m271 330v-8.79l33.25-33.25-4.83-9.67c-8.28-16.55-24.92-26.83-43.42-26.83v108.54h46.7v-30z"/></g></svg>