<svg height="512pt" viewBox="-51 0 512 512.00103" width="512pt" xmlns="http://www.w3.org/2000/svg"><path d="m182.902344 269.246094c0 50.507812-40.945313 91.453125-91.449219 91.453125-50.507813 0-91.453125-40.945313-91.453125-91.453125 0-50.507813 40.945312-91.449219 91.453125-91.449219 50.503906 0 91.449219 40.941406 91.449219 91.449219zm0 0" fill="#80d8e7"/><path d="m410.8125 269.246094c0 50.507812-40.941406 91.453125-91.449219 91.453125-50.507812 0-91.453125-40.945313-91.453125-91.453125 0-50.507813 40.945313-91.449219 91.453125-91.449219 50.507813 0 91.449219 40.941406 91.449219 91.449219zm0 0" fill="#80d8e7"/><path d="m152.730469 86.25c-3.667969 0-6.921875-2.621094-7.597657-6.355469-8.101562-44.980469-57.585937-49.171875-58.085937-49.207031-4.253906-.316406-7.445313-4.023438-7.132813-8.277344.320313-4.257812 4.03125-7.449218 8.277344-7.132812.632813.046875 15.652344 1.242187 31.933594 9.273437 22.074219 10.890625 35.980469 29.082031 40.21875 52.601563.753906 4.199218-2.035156 8.21875-6.238281 8.976562-.460938.082032-.921875.121094-1.375.121094zm0 0" fill="#303746"/><path d="m258.085938 86.25c-.457032 0-.917969-.039062-1.378907-.121094-4.199219-.757812-6.992187-4.777344-6.234375-8.976562 4.234375-23.519532 18.140625-41.710938 40.214844-52.601563 16.28125-8.035156 31.300781-9.226562 31.933594-9.273437 4.242187-.316406 7.960937 2.875 8.277344 7.132812.316406 4.25-2.867188 7.949219-7.113282 8.277344-2.039062.160156-50.046875 4.46875-58.105468 49.207031-.671876 3.734375-3.925782 6.355469-7.59375 6.355469zm0 0" fill="#303746"/><path d="m86.703125 122.894531-.011719-.007812c23.664063-41.015625 67.964844-68.621094 118.714844-68.621094 50.753906 0 95.054688 27.605469 118.714844 68.621094l-.007813.007812-118.707031 24.894531zm0 0" fill="#3b4456"/><path d="m105.394531 394.78125c-4.578125-12.058594-7.027343-25.167969-6.914062-38.859375.046875-5.507813.519531-10.910156 1.378906-16.195313l211.105469-.019531c.910156 5.582031 1.378906 11.320313 1.378906 17.160157 0 13.351562-2.449219 26.132812-6.921875 37.914062l-32.785156 29.597656-67.222657 24.898438-58.332031-20.589844zm0 0" fill="#f3e177"/><path d="m162.351562 434.078125c-11.382812-10.902344-20.363281-24.289063-26.050781-39.296875-4.578125-12.058594-7.027343-25.167969-6.914062-38.859375.046875-5.507813.519531-10.90625 1.378906-16.195313h-30.90625c-.867187 5.332032-1.332031 10.792969-1.378906 16.195313-.105469 12.835937 2.039062 25.160156 6.082031 36.585937.269531.761719.546875 1.519532.832031 2.273438l41.6875 33.90625zm0 0" fill="#efbb63"/><path d="m310.964844 339.707031c-29.09375 18.75-65.742188 29.925781-105.558594 29.925781-39.804688 0-76.453125-11.175781-105.546875-29.90625 8.332031-51.128906 53.308594-90.304687 106.621094-89.785156 52.726562.515625 96.335937 39.203125 104.484375 89.765625zm0 0" fill="#3b4456"/><path d="m86.703125 122.894531 27.742187 5.820313c1.011719-1.96875 2.050782-3.917969 3.152344-5.828125 21.226563-36.792969 59.0625-62.777344 103.261719-67.746094-1.128906-.125-2.257813-.234375-3.394531-.332031-4.003906-.386719-8.035156-.542969-12.058594-.542969-28.546875 0-55.054688 8.734375-76.996094 23.675781-17.0625 11.625-31.363281 27-41.707031 44.953125zm0 0" fill="#303746"/><path d="m126.300781 285.148438c-13.605469 14.972656-23.050781 33.789062-26.441406 54.578124 9.148437 5.890626 19.046875 11.03125 29.550781 15.316407.089844-5.203125.539063-10.3125 1.355469-15.316407 2.300781-14.113281 7.402344-27.3125 14.695313-39.019531zm0 0" fill="#303746"/><path d="m342.34375 191.203125c0 75.628906-61.304688 136.9375-136.9375 136.9375-75.628906 0-136.9375-61.308594-136.9375-136.9375 0-24.878906 6.636719-48.207031 18.222656-68.316406l.011719.007812c74.40625-68.316406 118.703125 0 118.703125 0s44.300781-68.316406 118.703125 0l.011719-.007812c11.585937 20.109375 18.222656 43.4375 18.222656 68.316406zm0 0" fill="#f3e177"/><path d="m209.207031 328.085938c2.601563-.085938 10.371094-.675782 11.652344-.820313-68.355469-7.675781-121.484375-65.65625-121.484375-136.0625 0-24.878906 6.636719-48.207031 18.222656-68.316406 6.277344-10.882813 14.019532-20.808594 22.9375-29.535157-15.519531 2.46875-33.554687 10.925782-53.84375 29.535157-5.792968 10.054687-10.347656 20.914062-13.457031 32.367187-.777344 2.867188-1.460937 5.765625-2.054687 8.703125-6.972657 34.542969-.164063 71.378907 18.859374 101.054688 10.058594 15.6875 23.359376 29.308593 38.800782 39.742187 22.523437 15.214844 49.390625 23.386719 76.566406 23.386719 1.265625 0 2.535156-.019531 3.800781-.054687zm0 0" fill="#efbb63"/><path d="m272.636719 204.191406c-4.269531 0-7.726563-3.457031-7.726563-7.726562v-13.070313c0-4.269531 3.457032-7.726562 7.726563-7.726562 4.265625 0 7.722656 3.457031 7.722656 7.726562v13.070313c0 4.269531-3.457031 7.726562-7.722656 7.726562zm0 0" fill="#303746"/><path d="m281.535156 223.40625h-17.800781c-4.269531 0-7.726563-3.460938-7.726563-7.726562 0-4.265626 3.457032-7.726563 7.726563-7.726563h17.800781c4.269532 0 7.726563 3.460937 7.726563 7.726563 0 4.265624-3.457031 7.726562-7.726563 7.726562zm0 0" fill="#ff6e7f"/><path d="m138.179688 204.191406c-4.265626 0-7.726563-3.457031-7.726563-7.726562v-13.070313c0-4.269531 3.460937-7.726562 7.726563-7.726562 4.265624 0 7.726562 3.457031 7.726562 7.726562v13.070313c0 4.269531-3.460938 7.726562-7.726562 7.726562zm0 0" fill="#303746"/><path d="m147.082031 223.40625h-17.804687c-4.265625 0-7.726563-3.460938-7.726563-7.726562 0-4.265626 3.460938-7.726563 7.726563-7.726563h17.804687c4.265625 0 7.726563 3.460937 7.726563 7.726563 0 4.265624-3.460938 7.726562-7.726563 7.726562zm0 0" fill="#ff6e7f"/><path d="m205.40625 222.667969c-6.914062 0-13.417969-2.902344-17.839844-7.960938-2.808594-3.214843-2.480468-8.09375.730469-10.902343 3.214844-2.808594 8.09375-2.480469 10.902344.730468 1.488281 1.703125 3.753906 2.679688 6.207031 2.679688 2.457031 0 4.71875-.976563 6.207031-2.679688 2.808594-3.210937 7.691407-3.539062 10.902344-.730468 3.214844 2.808593 3.542969 7.6875.734375 10.902343-4.425781 5.058594-10.925781 7.960938-17.84375 7.960938zm0 0" fill="#303746"/><path d="m305.417969 394.78125c-8.875 23.421875-25.757813 42.910156-47.296875 55.136719-13.855469 7.863281-25.546875 19.144531-33.0625 33.203125-3.230469 6.03125-6.023438 12.628906-7.507813 19.257812-1.257812 5.589844-6.128906 9.621094-11.855469 9.621094h-.578124c-5.726563 0-10.597657-4.03125-11.855469-9.621094-1.484375-6.628906-4.277344-13.226562-7.496094-19.257812-7.34375-13.714844-18.492187-25.117188-32.097656-32.65625-22.007813-12.191406-39.265625-31.90625-48.273438-55.683594 28.144531 16.679688 62.683594 26.496094 100.011719 26.496094s71.871094-9.816406 100.011719-26.496094zm0 0" fill="#3b4456"/><path d="m217.589844 502.378906c1.003906-3.488281 1.902344-6.988281 3.269531-10.359375-1.238281-3.054687-2.664063-6.042969-4.1875-8.902343-7.347656-13.710938-18.492187-25.117188-32.101563-32.652344-16.367187-9.066406-30.097656-22.304688-39.773437-38.273438-14.117187-4.394531-27.351563-10.265625-39.402344-17.410156 9.007813 23.777344 26.265625 43.492188 48.273438 55.683594 3.398437 1.882812 6.648437 4.011718 9.722656 6.351562 12.621094 9.625 22.339844 23.21875 27.695313 38.144532 1.207031 3.363281 1.621093 7.195312 3.246093 10.378906 2.019531 3.953125 6.230469 6.660156 10.789063 6.660156 6.078125 0 10.8125-3.890625 12.46875-9.621094zm0 0" fill="#303746"/><path d="m110.605469 22.980469c0 12.695312-10.292969 22.984375-22.984375 22.984375s-22.980469-10.289063-22.980469-22.984375c0-12.691407 10.289063-22.980469 22.980469-22.980469s22.984375 10.289062 22.984375 22.980469zm0 0" fill="#f3e177"/><path d="m97.921875 35.664062c-12.691406 0-22.980469-10.289062-22.980469-22.984374 0-3.6875.875-7.171876 2.417969-10.261719-7.539063 3.769531-12.71875 11.5625-12.71875 20.5625 0 12.695312 10.289063 22.984375 22.980469 22.984375 9.003906 0 16.792968-5.179688 20.5625-12.722656-3.089844 1.546874-6.570313 2.421874-10.261719 2.421874zm0 0" fill="#efbb63"/><path d="m346.175781 22.980469c0 12.695312-10.289062 22.984375-22.984375 22.984375-12.691406 0-22.980468-10.289063-22.980468-22.984375 0-12.691407 10.289062-22.980469 22.980468-22.980469 12.695313 0 22.984375 10.289062 22.984375 22.980469zm0 0" fill="#f3e177"/><path d="m333.496094 35.664062c-12.695313 0-22.984375-10.289062-22.984375-22.984374 0-3.6875.875-7.171876 2.417969-10.261719-7.539063 3.769531-12.71875 11.5625-12.71875 20.5625 0 12.695312 10.289062 22.984375 22.980468 22.984375 9.003906 0 16.792969-5.179688 20.566406-12.722656-3.089843 1.546874-6.574218 2.421874-10.261718 2.421874zm0 0" fill="#efbb63"/></svg>