<svg height="511pt" viewBox="-5 0 511 511.98763" width="511pt" xmlns="http://www.w3.org/2000/svg"><path d="m412.515625 105.917969c24.097656-35.042969 16.683594-69.648438 3.175781-95.601563-3.351562-6.152344-9.707031-10.070312-16.707031-10.3046872-7-.2343748-13.605469 3.2460932-17.367187 9.1562502-15.710938 27.542969-56.847657 45.460937-64.882813 48.730469h-130.117187c-8.03125-3.269532-49.167969-21.1875-64.882813-48.730469-3.761719-5.910157-10.363281-9.390625-17.363281-9.1562502-7.003906.2343752-13.359375 4.1523432-16.710938 10.3046872-13.507812 25.953125-20.921875 60.558594 3.175782 95.601563l81.390624 79.449219h132.414063zm0 0" fill="#fdd7ad"/><path d="m412.160156 170.976562c32.039063 15.320313 70.46875 4.574219 89.910156-25.140624.996094-1.433594 1.054688-3.320313.144532-4.808594-.90625-1.492188-2.605469-2.308594-4.335938-2.085938-7.5625 1.410156-15.347656 1.109375-22.777344-.882812-9.386718-3.917969-17.792968-9.855469-24.628906-17.390625-10.40625-9.417969-23.921875-14.671875-37.957031-14.75-2.625-.027344-5.25.121093-7.855469.441406-7.277344.824219-14.375 2.820313-21.011718 5.914063h-263.945313c-6.636719-3.09375-13.730469-5.089844-21.007813-5.914063-2.605468-.320313-5.230468-.46875-7.859374-.441406-14.035157.078125-27.546876 5.324219-37.957032 14.742187-6.832031 7.535156-15.242187 13.472656-24.628906 17.390625-7.429688 1.992188-15.210938 2.292969-22.773438.882813-1.734374-.222656-3.433593.59375-4.339843 2.082031-.90625 1.492187-.851563 3.378906.144531 4.8125 19.441406 29.71875 57.871094 40.46875 89.910156 25.148437zm0 0" fill="#804537"/><path d="m404.480469 292.535156c9.632812-22.730468 14.558593-47.171875 14.480469-71.859375 0-97.542969-74.949219-176.550781-167.285157-176.550781-92.335937 0-167.28125 79.007812-167.28125 176.550781-.082031 24.6875 4.84375 49.128907 14.476563 71.859375" fill="#805333"/><path d="m380.691406 292.535156c8.191406-23.066406 12.328125-47.378906 12.226563-71.859375 0-97.542969-63.277344-176.550781-141.242188-176.550781-77.964843 0-141.242187 79.007812-141.242187 176.550781-.101563 24.480469 4.035156 48.792969 12.226562 71.859375" fill="#cb8252"/><path d="m454.710938 379.574219c0-73.128907-90.902344-132.414063-203.035157-132.414063-112.132812 0-203.035156 59.285156-203.035156 132.414063 0 73.128906 90.902344 132.414062 203.035156 132.414062 112.132813 0 203.035157-59.285156 203.035157-132.414062zm0 0" fill="#cbb292"/><path d="m428.226562 379.574219c0-73.128907-79.042968-132.414063-176.550781-132.414063-97.507812 0-176.550781 59.285156-176.550781 132.414063 0 73.128906 79.042969 132.414062 176.550781 132.414062 97.507813 0 176.550781-59.285156 176.550781-132.414062zm0 0" fill="#fdd7ad"/><path d="m313.65625 262.34375c-.621094 0-1.238281-.066406-1.847656-.195312-39.671875-8.183594-80.59375-8.183594-120.265625 0-4.730469.929687-9.332031-2.109376-10.332031-6.824219-1.003907-4.714844 1.960937-9.363281 6.660156-10.441407 42.09375-8.695312 85.519531-8.695312 127.609375 0 4.417969.941407 7.410156 5.0625 6.941406 9.550782-.472656 4.492187-4.253906 7.902344-8.765625 7.910156zm0 0" fill="#805333"/><path d="m216.367188 176.539062c0 14.625-11.859376 26.484376-26.484376 26.484376s-26.480468-11.859376-26.480468-26.484376 11.855468-26.484374 26.480468-26.484374 26.484376 11.859374 26.484376 26.484374zm0 0" fill="#fff"/><path d="m198.710938 176.539062c0 4.875-3.953126 8.828126-8.828126 8.828126s-8.828124-3.953126-8.828124-8.828126 3.953124-8.828124 8.828124-8.828124 8.828126 3.953124 8.828126 8.828124zm0 0" fill="#2c2f38"/><path d="m188.398438 351.015625c-1.179688 0-2.351563-.238281-3.441407-.707031-17.953125-7.597656-26.347656-28.308594-18.757812-46.265625 7.59375-17.957031 28.300781-26.363281 46.261719-18.777344 17.957031 7.582031 26.375 28.289063 18.796874 46.25-1.222656 2.910156-3.90625 4.941406-7.035156 5.335937-3.128906.394532-6.234375-.910156-8.140625-3.425781-1.90625-2.511719-2.324219-5.851562-1.101562-8.757812 3.304687-7.785157.625-16.820313-6.386719-21.542969-7.015625-4.726562-16.394531-3.8125-22.363281 2.171875-3.324219 3.304687-5.1875 7.800781-5.175781 12.484375 0 7.097656 4.25 13.507812 10.789062 16.269531 3.878906 1.628907 6.070312 5.769531 5.234375 9.894531-.839844 4.125-4.46875 7.082032-8.679687 7.070313zm0 0" fill="#7f6e5d"/><path d="m314.953125 351.015625c-4.207031.011719-7.839844-2.945313-8.675781-7.070313-.835938-4.125 1.351562-8.265624 5.234375-9.894531 6.542969-2.757812 10.796875-9.167969 10.796875-16.269531s-4.253906-13.511719-10.796875-16.269531c-4.394531-1.835938-9.34375-1.835938-13.738281 0-4.320313 1.820312-7.738282 5.285156-9.5 9.628906-1.765626 4.34375-1.730469 9.207031.097656 13.527344 1.894531 4.492187-.21875 9.671875-4.710938 11.5625-4.496094 1.890625-9.675781-.21875-11.566406-4.714844-7.546875-17.964844.855469-38.652344 18.792969-46.265625 10.90625-4.609375 23.398437-3.449219 33.265625 3.09375 9.871094 6.542969 15.800781 17.597656 15.800781 29.4375-.015625 14.183594-8.5 26.988281-21.558594 32.527344-1.085937.46875-2.257812.707031-3.441406.707031zm0 0" fill="#7f6e5d"/><path d="m305.171875 437.394531 7.589844 68.414063.707031 6.179687 3.53125-7.0625 16.144531-32.292969c1.410157-2.816406 4.210938-4.667968 7.351563-4.863281 3.144531-.195312 6.152344 1.300781 7.894531 3.921875l12.835937 19.285156h.089844l13.945313 21.011719v-49.550781c.003906-2.835938 1.367187-5.496094 3.667969-7.15625 2.300781-1.65625 5.257812-2.109375 7.949218-1.210938l23.605469 7.863282 44.226563 14.742187-30.632813-27.277343-45.460937-40.339844" fill="#4c8056"/><path d="m124.734375 409.058594-45.460937 40.339844-30.632813 27.277343 44.226563-14.742187 23.605468-7.863282c2.691406-.898437 5.648438-.445312 7.949219 1.210938 2.300781 1.660156 3.667969 4.320312 3.667969 7.15625v49.550781l13.949218-21.011719h.085938l12.835938-19.285156c1.746093-2.621094 4.753906-4.117187 7.894531-3.921875 3.144531.195313 5.945312 2.046875 7.351562 4.863281l16.144531 32.292969 3.53125 7.0625.707032-6.179687 7.589844-68.414063" fill="#4c8056"/><path d="m339.953125 176.539062c0 14.625-11.859375 26.484376-26.484375 26.484376s-26.480469-11.859376-26.480469-26.484376 11.855469-26.484374 26.480469-26.484374 26.484375 11.859374 26.484375 26.484374zm0 0" fill="#fff"/><g fill="#2c2f38"><path d="m322.296875 176.539062c0 4.875-3.953125 8.828126-8.828125 8.828126s-8.828125-3.953126-8.828125-8.828126 3.953125-8.828124 8.828125-8.828124 8.828125 3.953124 8.828125 8.828124zm0 0"/><path d="m251.675781 450.195312c-156.167969 0-167.273437-83.738281-167.671875-87.304687-.535156-4.847656 2.957032-9.210937 7.804688-9.746094 4.847656-.535156 9.210937 2.957031 9.746094 7.804688.363281 2.851562 10.796874 71.589843 150.121093 71.589843 140.542969 0 150.070313-70.875 150.121094-71.589843.539063-4.847657 4.902344-8.339844 9.746094-7.804688 4.847656.535157 8.339843 4.898438 7.804687 9.746094-.398437 3.566406-11.503906 87.304687-167.671875 87.304687zm0 0"/></g></svg>