<svg xmlns="http://www.w3.org/2000/svg" width="92.797" height="70.685" viewBox="0 0 92.797 70.685"><path d="M91,300v16.312h59.811V300Zm0,0" transform="translate(-74.507 -245.627)" fill="#ff9f00"/><path d="M256,300h29.905v16.312H256Zm0,0" transform="translate(-209.601 -245.627)" fill="#ff7816"/><path d="M149.854,104.354l-4.4,8.591H93.9l-4.4-8.591C95.97,95.383,107.226,90,119.677,90S143.384,95.383,149.854,104.354Zm0,0" transform="translate(-73.279 -73.688)" fill="#ff4b00"/><path d="M286.177,104.354l-4.4,8.591H256V90C268.451,90,279.707,95.383,286.177,104.354Zm0,0" transform="translate(-209.601 -73.688)" fill="#cc1e0d"/><path d="M115.045,83.687l-10.168,34.582H45.067L34.9,83.687l6.851-2.61a19.162,19.162,0,0,0,13.865,10h2.828C64.7,90.1,69.371,80.534,71.275,71.4H78.67c1.9,9.135,6.579,18.7,12.832,19.683h2.828a19.162,19.162,0,0,0,13.865-10Zm0,0" transform="translate(-28.573 -58.458)" fill="#fdbf00"/><path d="M296.073,83.687l-10.168,34.582H256V71.4h3.7c1.9,9.135,6.579,18.7,12.832,19.683h2.828a19.162,19.162,0,0,0,13.865-10Zm0,0" transform="translate(-209.601 -58.458)" fill="#ff9f00"/><path d="M8.337,76.312A8.158,8.158,0,1,1,8.337,60a8.156,8.156,0,0,1,0,16.312Zm0,0" transform="translate(0 -49.125)" fill="#ff9f00"/><path d="M429.156,76.312a8.156,8.156,0,1,1,0-16.312,8.158,8.158,0,1,1,0,16.312Zm0,0" transform="translate(-344.696 -49.125)" fill="#ff7816"/><path d="M219.156,0a8.156,8.156,0,1,0,8.156,8.156A8.145,8.145,0,0,0,219.156,0Zm0,0" transform="translate(-172.757)" fill="#ff9f00"/><path d="M214,173.7l-9.3,9.3,9.3,9.3,9.3-9.3Zm0,0" transform="translate(-167.599 -142.217)" fill="#ff4b00"/><path d="M328.633,233.785l3.844,3.844-3.844,3.844-3.844-3.844Zm0,0" transform="translate(-265.923 -191.413)" fill="#cc1e0d"/><path d="M148.633,233.785l3.844,3.844-3.844,3.844-3.844-3.844Zm0,0" transform="translate(-118.547 -191.413)" fill="#ff4b00"/><path d="M256,16.312V0a8.156,8.156,0,0,1,0,16.312Zm0,0" transform="translate(-209.601)" fill="#ff7816"/><path d="M265.3,183l-9.3,9.3V173.7Zm0,0" transform="translate(-209.601 -142.217)" fill="#cc1e0d"/></svg>