<?xml version="1.0" encoding="iso-8859-1"?>
<!-- Generator: Adobe Illustrator 19.0.0, SVG Export Plug-In . SVG Version: 6.00 Build 0)  -->
<svg version="1.1" id="Capa_1" xmlns="http://www.w3.org/2000/svg" xmlns:xlink="http://www.w3.org/1999/xlink" x="0px" y="0px"
	 viewBox="0 0 512 512" style="enable-background:new 0 0 512 512;" xml:space="preserve">
<g>
	<path style="fill:#FF98C5;" d="M87.454,479.129c-3.139,0-6.329-0.593-9.417-1.844c-12.845-5.206-19.04-19.839-13.834-32.685
		c15.155-37.401,14.427-57.952,13.583-81.749c-0.997-28.142-2.127-60.04,21.477-115.857c5.398-12.766,20.125-18.738,32.89-13.34
		c12.765,5.398,18.738,20.124,13.34,32.889c-19.28,45.589-18.437,69.361-17.545,94.53c0.915,25.803,1.951,55.051-17.226,102.375
		C106.766,473.209,97.371,479.129,87.454,479.129z"/>
	<path style="fill:#FF98C5;" d="M157.638,512c-7.426,0-14.778-3.28-19.73-9.566c-8.578-10.888-6.705-26.667,4.182-35.245
		c23.474-18.494,24.786-48.71,24.984-96.477c0.191-46.122,0.407-98.4,33.25-145.178c7.964-11.344,23.616-14.083,34.96-6.119
		c11.343,7.964,14.084,23.617,6.119,34.96c-23.795,33.893-23.969,75.911-24.137,116.545c-0.098,23.687-0.2,48.182-5.109,70.627
		c-6.105,27.916-18.864,49.199-39.006,65.069C168.552,510.241,163.075,512,157.638,512z"/>
	<path style="fill:#FF98C5;" d="M424.545,479.129c3.139,0,6.329-0.593,9.417-1.844c12.845-5.206,19.04-19.839,13.834-32.685
		c-15.155-37.401-14.427-57.952-13.583-81.749c0.997-28.142,2.127-60.04-21.477-115.857c-5.398-12.766-20.125-18.738-32.89-13.34
		c-12.765,5.398-18.738,20.124-13.34,32.889c19.28,45.589,18.437,69.361,17.545,94.53c-0.915,25.803-1.951,55.051,17.226,102.375
		C405.233,473.209,414.627,479.129,424.545,479.129z"/>
	<path style="fill:#FF98C5;" d="M354.36,512c7.426,0,14.778-3.28,19.73-9.566c8.578-10.888,6.705-26.667-4.181-35.245
		c-23.474-18.494-24.786-48.71-24.984-96.477c-0.191-46.122-0.407-98.4-33.25-145.178c-7.964-11.344-23.616-14.083-34.96-6.119
		c-11.343,7.964-14.084,23.617-6.119,34.96c23.795,33.893,23.969,75.911,24.137,116.545c0.098,23.687,0.2,48.182,5.109,70.627
		c6.105,27.916,18.864,49.199,39.006,65.069C343.447,510.241,348.924,512,354.36,512z"/>
</g>
<g>
	<path style="fill:#EB5E8A;" d="M412.736,246.995c-5.398-12.766-20.125-18.738-32.89-13.339
		c-12.765,5.398-18.738,20.124-13.339,32.89c9.858,23.309,14.448,40.907,16.467,55.913c3.678,0.398,7.442,0.635,11.303,0.635
		l0.697-0.002c13.156-0.094,25.91-2.24,37.922-6.27C430.456,298.034,424.866,275.677,412.736,246.995z"/>
	<path style="fill:#EB5E8A;" d="M342.565,312.905c-3.274-29.428-11.24-59.384-30.89-87.372c-7.964-11.343-23.616-14.083-34.96-6.119
		c-11.343,7.964-14.084,23.617-6.119,34.96c10.431,14.857,16.322,31.276,19.664,48.455c16.105,1.648,31.681,4.467,46.563,8.456
		C338.693,311.787,340.606,312.333,342.565,312.905z"/>
	<path style="fill:#EB5E8A;" d="M235.286,219.414c-11.345-7.963-26.996-5.225-34.96,6.119c-19.65,27.988-27.616,57.944-30.89,87.372
		c1.958-0.572,3.87-1.118,5.742-1.619c14.883-3.989,30.459-6.807,46.564-8.456c3.342-17.179,9.234-33.597,19.664-48.455
		C249.368,243.031,246.629,227.378,235.286,219.414z"/>
	<path style="fill:#EB5E8A;" d="M132.152,233.655c-12.765-5.398-27.491,0.574-32.89,13.339
		c-12.13,28.682-17.72,51.039-20.161,69.826c12.012,4.03,24.766,6.176,37.922,6.27c0,0,0.697,0.002,0.698,0.002
		c3.861,0,7.624-0.237,11.302-0.635c2.02-15.006,6.611-32.604,16.467-55.913C150.89,253.779,144.917,239.054,132.152,233.655z"/>
</g>
<path style="fill:#FF98C5;" d="M255.999,270.194c30.1,0,59.748,3.447,88.824,11.24c16.323,4.375,32.797,10.874,49.932,10.751
	c52.799-0.376,91.929-44.747,88.779-96.14C476.487,81.11,359.825,0,255.999,0C152.175,0,35.512,81.11,28.465,196.046
	c-3.15,51.393,35.98,95.764,88.779,96.14c17.134,0.123,33.609-6.376,49.932-10.751C196.251,273.641,225.9,270.194,255.999,270.194z"
	/>
<path style="fill:#EB5E8A;" d="M59.371,196.046C66.069,86.783,171.831,8.096,271.452,0.594C266.28,0.205,261.124,0,255.999,0
	C152.175,0,35.512,81.11,28.465,196.046c-3.15,51.393,35.98,95.764,88.779,96.14c5.14,0.036,10.218-0.531,15.253-1.448
	C87.832,282.703,56.541,242.211,59.371,196.046z"/>
<g>
	<path style="fill:#3A484A;" d="M161.509,212.413c-4.268,0-7.726-3.459-7.726-7.726v-17.101c0-4.267,3.458-7.726,7.726-7.726
		s7.726,3.459,7.726,7.726v17.101C169.236,208.954,165.777,212.413,161.509,212.413z"/>
	<path style="fill:#3A484A;" d="M350.49,212.413c-4.268,0-7.726-3.459-7.726-7.726v-17.101c0-4.267,3.458-7.726,7.726-7.726
		c4.268,0,7.726,3.459,7.726,7.726v17.101C358.216,208.954,354.757,212.413,350.49,212.413z"/>
	<path style="fill:#3A484A;" d="M255.999,221.541c-11.319,0-21.94-4.723-29.139-12.96c-2.809-3.213-2.481-8.093,0.731-10.902
		c3.213-2.809,8.094-2.482,10.902,0.731c4.266,4.879,10.646,7.677,17.505,7.677c6.86,0,13.24-2.798,17.504-7.676
		c2.807-3.214,7.69-3.542,10.901-0.732c3.213,2.808,3.542,7.689,0.732,10.902C277.939,216.818,267.318,221.541,255.999,221.541z"/>
</g>
<g>
</g>
<g>
</g>
<g>
</g>
<g>
</g>
<g>
</g>
<g>
</g>
<g>
</g>
<g>
</g>
<g>
</g>
<g>
</g>
<g>
</g>
<g>
</g>
<g>
</g>
<g>
</g>
<g>
</g>
</svg>
