<svg height="512" viewBox="0 0 58 58" width="512" xmlns="http://www.w3.org/2000/svg"><g id="045---Lion" fill="none" transform="translate(-1 -1)"><path id="Shape" d="m58.91 19.66c.1091612.3014759.0671423.6370131-.1129889.9022613-.1801312.2652481-.4765275.4280365-.7970111.4377387h-3.69l1.12 1.38c1.9179051 2.3542453 3.1158129 5.2118631 3.45 8.23l.11 1c.0557785.5131346-.2173992 1.0058443-.6821648 1.2303688-.4647656.2245244-1.020534.1322717-1.3878352-.2303688l-2.61-2.61.39 3.41c.4093617 3.6708486-.0602264 7.3864222-1.37 10.84l-.07.17c-.173621.4467151-.5927129.750393-1.0712832.7762616-.4785702.0258687-.9279546-.2308645-1.1487168-.6562616l-1.79-3.54-.09.66c-.5499553 3.5956654-1.9184742 7.0169628-4 10-.2335803.3185713-.6049716.5067879-1 .5067879s-.7664197-.1882166-1-.5067879l-2.02-2.66s-.46 5.64-2 6c-1.4.32-4.06-4-4.06-4s-1 6-5.06 8c-4.05-2-5.06-8-5.06-8s-2.66 4.32-4.06 4c-1.56-.36-2-6-2-6l-2.1 2.71c-.2335803.3185713-.6049716.5067879-1 .5067879s-.7664197-.1882166-1-.5067879c-2.0815258-2.9830372-3.4500447-6.4043346-4-10l-.05-.71-1.75 3.54c-.22076222.4253971-.67014662.6821303-1.14871684.6562616-.47857023-.0258686-.89766214-.3295465-1.07128316-.7762616l-.07-.17c-1.32332362-3.4503034-1.80663514-7.165975-1.41-10.84l.39-3.41-2.61 2.58c-.36373176.3665395-.91883239.464382-1.38596408.2442911s-.7451041-.7104389-.69403592-1.2242911l.11-1c.33418705-3.0181369 1.53209488-5.8757547 3.45-8.23l1.13-1.37h-3.58c-.3397038.0045948-.65850501-.163595-.84648929-.4465821-.18798429-.2829871-.21943573-.6420593-.08351071-.9534179.86-2 2.7-5.51 5.52-7.6h-2.85c-.50022248.0026234-.94959929-.3053309-1.1276786-.7727891s-.0475003-.9963481.3276786-1.3272109l1.1-1c2.97220799-2.53365079 6.7544778-3.91740804 10.66-3.9l-1.58-2.08c-.2738219-.36506269-.3168817-.85384264-.1111034-1.26115641.2057783-.40731376.624776-.66265841 1.0811034-.65884359 3.66 0 7.23.23 10.1 2.5l.64.5s2.06-3 5.06-3 5.06 3 5.06 3l.64-.5c2.87-2.27 6.44-2.5 10.1-2.5.4617249-.01559728.8914021.23525072 1.1048103.64499461.2134083.40974389.172646.90561246-.1048103 1.27500539l-1.61 2.08c3.918302.01040485 7.7020695 1.43020507 10.66 4l1.1 1c.3751789.3308628.5057579.8597527.3276786 1.3272109s-.6274561.7754125-1.1276786.7727891h-2.85c2.93 1.35 4.81 5.42 5.61 7.56z" fill="#e57e25"/><path id="Shape" d="m49 14.5c.0002831 2.2619478-1.124197 4.3759704-3 5.64-.6086461.406228-1.2864684.6976916-2 .86v4.91c-.0001819 1.9363927-.9348854 3.7536649-2.51 4.88l-2.86 2c-.290493-.6850634-.7518635-1.2841564-1.34-1.74l-3.29-2.05c0 .83-2 2-4 2s-4-1.17-4-2l-3.29 2.09c-.5881365.4558436-1.049507 1.0549366-1.34 1.74l-2.86-2c-1.5866495-1.1345201-2.5227904-2.9695055-2.51-4.92v-4.91c-.7135316-.1623084-1.3913539-.453772-2-.86-1.875803-1.2640296-3.0002831-3.3780522-3-5.64 0-3.59 2-6.5 6.5-6.5 1.6322327-.07390723 3.2344116.45659201 4.5 1.49 4.807959-3.34783294 11.192041-3.34783294 16 0 1.2655884-1.03340799 2.8677673-1.56390723 4.5-1.49 4.5 0 6.5 2.91 6.5 6.5z" fill="#f0c419"/><g fill="#d25627"><path id="Shape" d="m11 37c-.5522847 0-1-.4477153-1-1 .105656-1.5485191.5348946-3.0576675 1.26-4.43.1368464-.348435.4568405-.5912597.8292505-.6292692.37241-.0380096.7348623.1351621.9392789.4487665.2044166.3136045.2165606.7151174.0314706 1.0405027-.5846661 1.1087128-.9448757 2.3218714-1.06 3.57 0 .5522847-.4477153 1-1 1z"/><path id="Shape" d="m8.75 28c-.18820368-.0023925-.37191134-.0578515-.53-.16-.46064915-.2950137-.59876805-.9054101-.31-1.37.94727898-1.3061838 2.1605957-2.3968056 3.56-3.2.2265272-.140135.4996021-.1841025.7586668-.1221522.2590648.0619502.4827077.2246981.6213332.4521522.1474693.2269184.1966707.5039179.1363682.7677413s-.2249592.491941-.4563682.6322587c-1.1339438.6418732-2.1297212 1.5017084-2.93 2.53-.18311545.2929855-.50449853.4706914-.85.47z"/><path id="Shape" d="m49 37c-.5522847 0-1-.4477153-1-1 0 0-.08-2.79-2.8-6.41-.3313708-.4418278-.2418278-1.0686292.2-1.4s1.0686292-.2418278 1.4.2c3.2 4.23 3.2 7.47 3.2 7.61 0 .5522847-.4477153 1-1 1z"/><path id="Shape" d="m51.25 28c-.3455015.0006914-.6668845-.1770145-.85-.47-.7977478-1.0306937-1.7940487-1.8909808-2.93-2.53-.4641814-.291737-.6069171-.902824-.32-1.37.1386255-.2274541.3622684-.390202.6213332-.4521522.2590647-.0619503.5321396-.0179828.7586668.1221522 1.3994043.8031944 2.612721 1.8938162 3.56 3.2.1410213.2253123.1865377.4974983.1264947.7564336-.0600429.2589352-.2207043.4833119-.4464947.6235664-.1592626.0863665-.3389966.1278436-.52.12z"/></g><path id="Shape" d="m18.65 13.14c-1.727904 2.2550312-2.6598096 5.0190984-2.65 7.86-.7135316-.1623084-1.3913539-.453772-2-.86.1272292-2.4822553.8843421-4.8912509 2.2-7-.3953936-.0800636-.7967947-.1268938-1.2-.14-.5522847 0-1-.4477153-1-1s.4477153-1 1-1c1.0826691.0366973 2.1540887.2321135 3.18.58.3078109.1030837.5464339.3491638.64.66.0921262.3098435.0287983.6451089-.17.9z" fill="#f29c1f"/><path id="Shape" d="m43.77 13.14c1.3156579 2.1087491 2.0727708 4.5177447 2.2 7-.5995442.4029158-1.2669185.6942569-1.97.86.0098096-2.8409016-.922096-5.6049688-2.65-7.86-.1987983-.2548911-.2621262-.5901565-.17-.9.0935661-.3108362.3321891-.5569163.64-.66 1.0259113-.3478865 2.0973309-.5433027 3.18-.58.5522847 0 1 .4477153 1 1s-.4477153 1-1 1c-.4129021.0161312-.8240344.0629267-1.23.14z" fill="#f29c1f"/><path id="Shape" d="m20 43c-.1523698.0006236-.3028673-.0335803-.44-.1-.6795007-.3311448-1.3008799-.7701627-1.84-1.3-1.7410886-1.7555301-2.7186263-4.1274965-2.72-6.6 0-.5522847.4477153-1 1-1 .2652165 0 .5195704.1053568.7071068.2928932s.2928932.4418903.2928932.7071068c.0049222 1.9349688.7614892 3.792323 2.11 5.18.3930618.3763171.841633.6899796 1.33.93.4086243.2092046.6223246.669756.5182358 1.1168644-.1040887.4471085-.4992278.7659194-.9582358.7731356z" fill="#d25627"/><path id="Shape" d="m39 43c-.4787354-.0035851-.88777-.3459746-.9755562-.8166061s.1703064-.9374592.6155562-1.1133939c.621521-.2488868 1.2041222-.5856505 1.73-1 1.5936161-1.2092442 2.5592649-3.0707801 2.63-5.07 0-.5522847.4477153-1 1-1s1 .4477153 1 1c-.0700954 2.6165879-1.3199102 5.0610785-3.4 6.65-.6820065.5258105-1.436485.9502046-2.24 1.26-.1126414.0541406-.2351326.0847635-.36.09z" fill="#d25627"/><path id="Shape" d="m34 36v4c0 2.209139-1.790861 4-4 4s-4-1.790861-4-4v-4z" fill="#f0c419"/><circle id="Oval" cx="23.5" cy="20.5" fill="#fff" r="3.5"/><circle id="Oval" cx="23.5" cy="20.5" fill="#35495e" r="2.5"/><circle id="Oval" cx="36.5" cy="20.5" fill="#fff" r="3.5"/><path id="Shape" d="m37.34 38c-.8721791.6727216-1.9488237 1.0257199-3.05 1-1.6470331.0219866-3.2187379-.6887611-4.29-1.94v-6.06c2 0 4-1.17 4-2l3.29 2.09c1.0604028.8268764 1.6844844 2.0932541 1.6942283 3.4379041.0097438 1.3446501-.5959199 2.6199389-1.6442283 3.4620959z" fill="#f3d55b"/><path id="Shape" d="m30 31v6.06c-1.0712621 1.2512389-2.6429669 1.9619866-4.29 1.94-1.1011763.0257199-2.1778209-.3272784-3.05-1-1.0483084-.842157-1.6539721-2.1174458-1.6442283-3.4620959.0097439-1.34465.6338255-2.6110277 1.6942283-3.4379041l3.29-2.1c0 .83 2 2 4 2z" fill="#f3d55b"/><circle id="Oval" cx="36.5" cy="20.5" fill="#35495e" r="2.5"/><circle id="Oval" cx="22" cy="19" fill="#fff" r="1"/><circle id="Oval" cx="35" cy="19" fill="#fff" r="1"/><ellipse id="Oval" cx="30" cy="29" fill="#fb7b76" rx="4" ry="2"/></g></svg>