<svg xmlns="http://www.w3.org/2000/svg" width="100%" height="100%" viewBox="0 0 84.488 59.99"><g transform="translate(-185.004 -133.81)"><path d="M749.9,256.8q2.249,1.187,4.4,2.429" transform="translate(-507.241 -109.066)" fill="none" stroke="#5480fe" stroke-miterlimit="10" stroke-width="1"/><path d="M562.441,223.849a95.91,95.91,0,0,1,20.871,7.3,99.831,99.831,0,0,1,14.9,8.744" transform="translate(-347.679 -81.022)" fill="none" stroke="#5480fe" stroke-miterlimit="10" stroke-width="1"/><path d="M521.327,216.817c1.965.242,4.011.591,6.119,1.047" transform="translate(-312.683 -75.036)" fill="none" stroke="#5480fe" stroke-miterlimit="10" stroke-width="1"/><path d="M369.97,235.052c-3.63-5.313-4.878-10.333-3.012-14.227,2.063-4.307,7.586-6.51,15.071-6.673" transform="translate(-180.557 -72.769)" fill="none" stroke="#5480fe" stroke-miterlimit="10" stroke-width="1"/><path d="M863.8,434.318c3.026,4.871,3.965,9.438,2.239,13.042-1.519,3.171-4.913,5.2-9.584,6.117" transform="translate(-597.934 -260.168)" fill="none" stroke="#5480fe" stroke-miterlimit="10" stroke-width="1"/><path d="M802.78,331.65a74.129,74.129,0,0,1,8.575,7.107" transform="translate(-552.248 -172.78)" fill="none" stroke="#5480fe" stroke-miterlimit="10" stroke-width="1"/><path d="M378.605,167.585c6.026-1.295,13.825-1.065,22.546.655" transform="translate(-191.202 -32.427)" fill="none" stroke="#5480fe" stroke-miterlimit="10" stroke-width="1"/><path d="M779.444,273.12q4.059,2.347,7.724,4.855" transform="translate(-532.385 -122.96)" fill="none" stroke="#5480fe" stroke-miterlimit="10" stroke-width="1"/><path d="M478.7,423.9a92.449,92.449,0,0,1-24.385-7.971,89.04,89.04,0,0,1-23.733-16.105" transform="translate(-235.444 -230.804)" fill="none" stroke="#5480fe" stroke-miterlimit="10" stroke-width="1"/><path d="M448.487,460.317a120.563,120.563,0,0,1-17.906-11.291" transform="translate(-235.442 -272.687)" fill="none" stroke="#5480fe" stroke-miterlimit="10" stroke-width="1"/></g></svg>