<?xml version="1.0"?>
<svg xmlns="http://www.w3.org/2000/svg" xmlns:xlink="http://www.w3.org/1999/xlink" version="1.1" id="Capa_1" x="0px" y="0px" viewBox="0 0 148.708 148.708" style="enable-background:new 0 0 148.708 148.708;" xml:space="preserve" width="512px" height="512px" class=""><g><g>
	<ellipse style="fill:#CAE2FF" cx="74.354" cy="74.704" rx="57.187" ry="46.563" data-original="#FFEBCA" class="" data-old_color="#FFEBCA"/>
	<path style="fill:#F0B43C;" d="M74.354,28.188c-41.682,0-62.896,6.699-62.896,6.699c44.287,8.268,62.896,38.396,62.896,38.396   s18.608-30.129,62.895-38.396C137.249,34.886,116.036,28.188,74.354,28.188z" data-original="#F0B43C"/>
	<path style="fill:#349DAB" d="M142.863,43.965c8.607-12.965,5.165-16.524,5.165-16.524c-2.761,2.935-6.548,5.37-10.59,7.357   l-23.081,1.277L74.354,47.554L34.248,33.132l-22.783,1.727c-4.11-1.98-7.976-4.43-10.785-7.417c0,0-3.443,3.559,5.164,16.524   c8.607,12.965-5.451,33.557,0,45.251c0,0,1.721-3.739,4.828-4.045c0,0-5.177,10.093-0.172,16.974c0,0,0.172-3.364,2.588-4.434   c0,0,0.863,6.116,6.213,6.27c0,0-0.345-3.059,0.863-3.976c0,0,4.314,4.587,14.151-1.529c9.837-6.116,22.436-16.82,28.13-18.962   c0,0,1.553,8.313,11.908,14.277l0,0c10.354-5.964,11.908-14.277,11.908-14.277c5.695,2.142,18.294,12.846,28.13,18.962   c9.837,6.116,14.152,1.529,14.152,1.529c1.208,0.917,0.863,3.976,0.863,3.976c5.35-0.153,6.213-6.27,6.213-6.27   c2.416,1.07,2.589,4.434,2.589,4.434c5.004-6.881-0.173-16.974-0.173-16.974c3.106,0.306,4.828,4.045,4.828,4.045   C148.314,77.522,134.256,56.931,142.863,43.965z" data-original="#AB4734" class="" data-old_color="#AB4734"/>
	<path style="fill:#010101" d="M74.354,74.592c-2.697,0-8.782,5.25-8.782,5.25c0,4.697,8.782,11.409,8.782,11.409   s8.782-6.712,8.782-11.409C83.136,79.842,77.051,74.592,74.354,74.592z" data-original="#FFC54F" class="active-path" data-old_color="#FFC54F"/>
	<g>
		<g>
			<path style="fill:#E6D4B6;" d="M61.857,93.606l-0.379,0.828l-0.475,0.777c-0.154,0.257-0.363,0.491-0.54,0.735     c-0.172,0.248-0.374,0.479-0.574,0.711c-0.201,0.231-0.39,0.468-0.611,0.685c-0.419,0.448-0.842,0.893-1.292,1.316     c-0.215,0.219-0.453,0.42-0.68,0.629c-0.226,0.211-0.447,0.425-0.683,0.628c-0.458,0.415-0.934,0.815-1.411,1.212l-1.441,1.183     c-0.306,0.24-0.617,0.48-0.927,0.714c-0.31-0.234-0.621-0.474-0.926-0.714l-1.442-1.181c-0.476-0.397-0.952-0.797-1.41-1.213     c-0.236-0.202-0.457-0.417-0.684-0.626c-0.226-0.21-0.465-0.411-0.68-0.63c-0.45-0.425-0.872-0.87-1.292-1.316     c-0.222-0.218-0.411-0.453-0.611-0.685c-0.201-0.231-0.402-0.464-0.575-0.711c-0.176-0.245-0.385-0.479-0.539-0.736l-0.475-0.777     l-0.377-0.816l-0.245-0.904l-0.026,0.933l0.179,0.956c0.09,0.308,0.209,0.604,0.318,0.909c0.109,0.306,0.271,0.581,0.406,0.875     c0.136,0.296,0.311,0.564,0.48,0.838c0.171,0.272,0.334,0.554,0.525,0.81c0.362,0.534,0.768,1.032,1.179,1.526     c0.82,0.99,1.736,1.895,2.667,2.778c0.952,0.87,1.932,1.678,2.979,2.476l0.546,0.416l0.548-0.416     c1.049-0.796,2.027-1.606,2.982-2.475c0.93-0.884,1.849-1.787,2.667-2.777c0.411-0.494,0.817-0.993,1.18-1.526     c0.191-0.257,0.354-0.538,0.525-0.811c0.17-0.273,0.344-0.542,0.48-0.837c0.135-0.295,0.297-0.57,0.406-0.876     c0.108-0.306,0.228-0.603,0.317-0.909l0.176-0.943L62.1,92.715L61.857,93.606z" data-original="#E6D4B6" class=""/>
			<path style="fill:#E6D4B6;" d="M83.367,93.606l-0.379,0.828l-0.475,0.777c-0.154,0.257-0.363,0.491-0.54,0.735     c-0.172,0.248-0.374,0.479-0.574,0.711c-0.2,0.231-0.39,0.468-0.611,0.685c-0.419,0.448-0.842,0.893-1.291,1.316     c-0.215,0.219-0.454,0.42-0.68,0.629c-0.225,0.211-0.448,0.425-0.683,0.628c-0.458,0.415-0.934,0.815-1.411,1.212l-1.441,1.183     c-0.305,0.24-0.616,0.48-0.927,0.714c-0.311-0.234-0.621-0.474-0.926-0.714l-1.443-1.181c-0.476-0.397-0.952-0.797-1.41-1.213     c-0.236-0.202-0.457-0.417-0.684-0.626c-0.227-0.21-0.465-0.411-0.68-0.63c-0.45-0.425-0.871-0.87-1.292-1.316     c-0.222-0.218-0.411-0.453-0.611-0.685c-0.2-0.231-0.402-0.464-0.574-0.711c-0.177-0.245-0.386-0.479-0.54-0.736l-0.474-0.777     l-0.377-0.816l-0.245-0.904l-0.026,0.933l0.179,0.956c0.09,0.308,0.21,0.604,0.318,0.909c0.11,0.306,0.271,0.581,0.407,0.875     c0.136,0.296,0.311,0.564,0.48,0.838c0.17,0.272,0.333,0.554,0.525,0.81c0.362,0.534,0.768,1.032,1.179,1.526     c0.82,0.99,1.736,1.895,2.667,2.778c0.952,0.87,1.932,1.678,2.98,2.476l0.546,0.416l0.548-0.416     c1.049-0.796,2.027-1.606,2.981-2.475c0.931-0.884,1.849-1.787,2.668-2.777c0.411-0.494,0.817-0.993,1.179-1.526     c0.192-0.257,0.354-0.538,0.525-0.811c0.169-0.273,0.344-0.542,0.48-0.837c0.135-0.295,0.296-0.57,0.406-0.876     c0.108-0.306,0.228-0.603,0.317-0.909l0.177-0.943l-0.025-0.946L83.367,93.606z" data-original="#E6D4B6" class=""/>
			<path style="fill:#E6D4B6;" d="M105.12,92.715l-0.243,0.892l-0.379,0.828l-0.475,0.777c-0.154,0.257-0.363,0.491-0.54,0.735     c-0.172,0.248-0.374,0.479-0.575,0.711c-0.2,0.231-0.389,0.468-0.611,0.685c-0.42,0.448-0.842,0.893-1.292,1.316     c-0.215,0.219-0.454,0.42-0.68,0.629c-0.226,0.211-0.447,0.425-0.683,0.628c-0.458,0.415-0.934,0.815-1.411,1.212l-1.441,1.183     c-0.306,0.24-0.617,0.48-0.927,0.714c-0.31-0.234-0.621-0.474-0.926-0.714l-1.442-1.181c-0.476-0.397-0.952-0.797-1.411-1.213     c-0.235-0.202-0.456-0.417-0.684-0.626c-0.227-0.21-0.465-0.411-0.68-0.63c-0.45-0.425-0.872-0.87-1.292-1.316     c-0.222-0.218-0.411-0.453-0.611-0.685c-0.2-0.231-0.401-0.464-0.574-0.711c-0.176-0.245-0.385-0.479-0.54-0.736l-0.474-0.777     l-0.377-0.816l-0.244-0.904l-0.026,0.933l0.179,0.956c0.09,0.308,0.209,0.604,0.318,0.909c0.109,0.306,0.271,0.581,0.406,0.875     c0.136,0.296,0.311,0.564,0.48,0.838c0.171,0.272,0.334,0.554,0.525,0.81c0.361,0.534,0.768,1.032,1.179,1.526     c0.819,0.99,1.736,1.895,2.668,2.778c0.952,0.87,1.932,1.678,2.979,2.476l0.546,0.416l0.548-0.416     c1.049-0.796,2.027-1.606,2.981-2.475c0.931-0.884,1.849-1.787,2.668-2.777c0.411-0.494,0.817-0.993,1.18-1.526     c0.191-0.257,0.354-0.538,0.525-0.811c0.169-0.273,0.344-0.542,0.48-0.837c0.135-0.295,0.296-0.57,0.406-0.876     c0.108-0.306,0.228-0.603,0.317-0.909l0.177-0.943L105.12,92.715z" data-original="#E6D4B6" class=""/>
		</g>
		<g>
			<path style="fill:#E6D4B6;" d="M70.442,105.881l-0.285,0.727l-0.357,0.682c-0.116,0.226-0.273,0.431-0.406,0.646     c-0.129,0.217-0.281,0.421-0.432,0.623c-0.151,0.203-0.293,0.41-0.46,0.601c-0.315,0.393-0.633,0.782-0.971,1.154     c-0.162,0.192-0.341,0.369-0.511,0.553c-0.169,0.185-0.336,0.372-0.513,0.55c-0.345,0.364-0.703,0.715-1.061,1.063l-1.084,1.037     c-0.229,0.211-0.463,0.421-0.697,0.626c-0.233-0.205-0.467-0.415-0.696-0.626l-1.084-1.035c-0.358-0.35-0.716-0.7-1.061-1.065     c-0.177-0.178-0.343-0.366-0.514-0.549c-0.17-0.185-0.35-0.361-0.511-0.553c-0.338-0.372-0.655-0.763-0.972-1.154     c-0.167-0.19-0.309-0.398-0.459-0.601c-0.151-0.203-0.302-0.407-0.432-0.624c-0.133-0.215-0.289-0.42-0.405-0.645l-0.357-0.682     l-0.283-0.716l-0.184-0.794l-0.02,0.818l0.135,0.838c0.068,0.271,0.157,0.53,0.239,0.798c0.083,0.269,0.204,0.51,0.306,0.768     c0.102,0.26,0.234,0.495,0.361,0.734c0.128,0.239,0.251,0.486,0.395,0.711c0.272,0.468,0.578,0.905,0.887,1.339     c0.616,0.868,1.305,1.662,2.005,2.436c0.716,0.763,1.453,1.472,2.24,2.172l0.41,0.365l0.412-0.365     c0.789-0.698,1.524-1.409,2.242-2.171c0.699-0.775,1.39-1.567,2.006-2.437c0.309-0.433,0.614-0.871,0.887-1.338     c0.144-0.226,0.266-0.473,0.395-0.711c0.127-0.24,0.258-0.476,0.361-0.735c0.102-0.258,0.223-0.499,0.305-0.768     c0.081-0.268,0.171-0.528,0.239-0.798l0.132-0.827l-0.019-0.83L70.442,105.881z" data-original="#E6D4B6" class=""/>
			<path style="fill:#E6D4B6;" d="M91.818,105.881l-0.285,0.727l-0.357,0.682c-0.116,0.226-0.273,0.431-0.406,0.646     c-0.129,0.217-0.281,0.421-0.432,0.623c-0.151,0.203-0.293,0.41-0.46,0.601c-0.315,0.393-0.633,0.782-0.971,1.154     c-0.162,0.192-0.341,0.369-0.511,0.553c-0.17,0.185-0.336,0.372-0.514,0.55c-0.345,0.364-0.702,0.715-1.061,1.063l-1.084,1.037     c-0.23,0.211-0.463,0.421-0.697,0.626c-0.233-0.205-0.466-0.415-0.696-0.626l-1.084-1.035c-0.358-0.35-0.716-0.7-1.06-1.065     c-0.177-0.178-0.343-0.366-0.514-0.549c-0.17-0.185-0.35-0.361-0.511-0.553c-0.338-0.372-0.655-0.763-0.971-1.154     c-0.167-0.19-0.309-0.398-0.459-0.601c-0.151-0.203-0.302-0.407-0.432-0.624c-0.132-0.215-0.29-0.42-0.405-0.645l-0.356-0.682     l-0.283-0.716l-0.184-0.794l-0.02,0.818l0.134,0.838c0.068,0.271,0.158,0.53,0.239,0.798c0.082,0.269,0.204,0.51,0.306,0.768     c0.102,0.26,0.233,0.495,0.361,0.734c0.128,0.239,0.251,0.486,0.395,0.711c0.272,0.468,0.577,0.905,0.886,1.339     c0.616,0.868,1.305,1.662,2.005,2.436c0.716,0.763,1.453,1.472,2.24,2.172l0.411,0.365l0.412-0.365     c0.789-0.698,1.523-1.409,2.241-2.171c0.7-0.775,1.39-1.567,2.006-2.437c0.309-0.433,0.614-0.871,0.887-1.338     c0.144-0.226,0.267-0.473,0.395-0.711c0.128-0.24,0.258-0.476,0.361-0.735c0.102-0.258,0.223-0.499,0.306-0.768     c0.081-0.268,0.171-0.528,0.238-0.798l0.133-0.827l-0.019-0.83L91.818,105.881z" data-original="#E6D4B6" class=""/>
		</g>
	</g>
	<g>
		<g>
			<ellipse style="fill:#5C281E;" cx="38.415" cy="61.725" rx="23.308" ry="23.536" data-original="#5C281E" class=""/>
			<ellipse style="fill:#0B0A0A" cx="38.415" cy="61.725" rx="20.639" ry="20.84" data-original="#8C3E2E" class="" data-old_color="#8C3E2E"/>
			<ellipse style="fill:#80FFA9" cx="38.415" cy="61.725" rx="15.166" ry="15.314" data-original="#FFD580" class="" data-old_color="#FFD580"/>
			<g style="opacity:0.2;">
				<path style="fill:#F8F8F8" d="M40.05,80.33c0,0.911-0.731,1.65-1.634,1.65l0,0c-0.903,0-1.634-0.739-1.634-1.65V43.121      c0-0.912,0.731-1.65,1.634-1.65l0,0c0.903,0,1.634,0.739,1.634,1.65V80.33z" data-original="#FFFFFF" class="" data-old_color="#FFFFFF"/>
				<path style="fill:#F8F8F8" d="M56.84,60.075c0.902,0,1.634,0.739,1.634,1.65l0,0c0,0.912-0.732,1.65-1.634,1.65H19.991      c-0.902,0-1.634-0.739-1.634-1.65l0,0c0-0.912,0.732-1.65,1.634-1.65H56.84z" data-original="#FFFFFF" class="" data-old_color="#FFFFFF"/>
				<path style="fill:#F8F8F8" d="M52.599,73.714c0.638,0.645,0.638,1.689,0,2.334l0,0c-0.638,0.645-1.673,0.645-2.312,0      L24.232,49.737c-0.638-0.645-0.638-1.689,0-2.334l0,0c0.638-0.644,1.673-0.644,2.311,0L52.599,73.714z" data-original="#FFFFFF" class="" data-old_color="#FFFFFF"/>
				<path style="fill:#F8F8F8" d="M50.287,47.403c0.638-0.644,1.673-0.644,2.312,0l0,0c0.638,0.645,0.638,1.689,0,2.334      L26.543,76.048c-0.638,0.645-1.673,0.645-2.311,0l0,0c-0.638-0.645-0.638-1.689,0-2.334L50.287,47.403z" data-original="#FFFFFF" class="" data-old_color="#FFFFFF"/>
			</g>
			<ellipse style="fill:#383838;" cx="38.415" cy="61.725" rx="6.84" ry="6.907" data-original="#383838" class=""/>
			<ellipse style="fill:#F8F8F8" cx="32.299" cy="55.768" rx="4.276" ry="4.317" data-original="#FFFFFF" class="" data-old_color="#FFFFFF"/>
		</g>
		<g>
			<ellipse style="fill:#5C281E;" cx="110.292" cy="61.725" rx="23.308" ry="23.536" data-original="#5C281E" class=""/>
			<ellipse style="fill:#0B0A0A" cx="110.292" cy="61.725" rx="20.639" ry="20.84" data-original="#8C3E2E" class="" data-old_color="#8C3E2E"/>
			<ellipse style="fill:#80FFA9" cx="110.292" cy="61.725" rx="15.165" ry="15.314" data-original="#FFD580" class="" data-old_color="#FFD580"/>
			<g style="opacity:0.2;">
				<path style="fill:#F8F8F8" d="M111.927,80.33c0,0.911-0.732,1.65-1.635,1.65l0,0c-0.902,0-1.634-0.739-1.634-1.65V43.121      c0-0.912,0.732-1.65,1.634-1.65l0,0c0.903,0,1.635,0.739,1.635,1.65V80.33z" data-original="#FFFFFF" class="" data-old_color="#FFFFFF"/>
				<path style="fill:#F8F8F8" d="M128.716,60.075c0.903,0,1.634,0.739,1.634,1.65l0,0c0,0.912-0.731,1.65-1.634,1.65H91.868      c-0.903,0-1.635-0.739-1.635-1.65l0,0c0-0.912,0.732-1.65,1.635-1.65H128.716z" data-original="#FFFFFF" class="" data-old_color="#FFFFFF"/>
				<path style="fill:#F8F8F8" d="M124.475,73.714c0.638,0.645,0.638,1.689,0,2.334l0,0c-0.638,0.645-1.673,0.645-2.311,0      L96.109,49.737c-0.639-0.645-0.639-1.689,0-2.334l0,0c0.638-0.644,1.673-0.644,2.311,0L124.475,73.714z" data-original="#FFFFFF" class="" data-old_color="#FFFFFF"/>
				<path style="fill:#F8F8F8" d="M122.164,47.403c0.639-0.644,1.673-0.644,2.311,0l0,0c0.638,0.645,0.638,1.689,0,2.334      L98.42,76.048c-0.638,0.645-1.673,0.645-2.311,0l0,0c-0.639-0.645-0.639-1.689,0-2.334L122.164,47.403z" data-original="#FFFFFF" class="" data-old_color="#FFFFFF"/>
			</g>
			<ellipse style="fill:#383838;" cx="110.292" cy="61.725" rx="6.84" ry="6.907" data-original="#383838" class=""/>
			<ellipse style="fill:#F8F8F8" cx="104.176" cy="55.768" rx="4.276" ry="4.317" data-original="#FFFFFF" class="" data-old_color="#FFFFFF"/>
		</g>
	</g>
	<path style="fill:#0318A0" d="M74.354,28.188c-41.682,0-62.896,6.699-62.896,6.699c44.287,8.268,62.896,34.001,62.896,34.001   s18.608-25.733,62.895-34.001C137.249,34.886,116.036,28.188,74.354,28.188z" data-original="#F5B83D" class="" data-old_color="#F5B83D"/>
	<path style="opacity:0.2;fill:#FFFFFF;" d="M74.354,28.142c-0.969,0-1.932,0.021-2.889,0.06   c-38.093,0.287-58.257,6.154-59.886,6.648l-0.114,0.008c-4.11-1.979-7.976-4.429-10.785-7.416c0,0-3.443,3.559,5.164,16.524   c8.607,12.965-5.451,33.557,0,45.251c0,0,1.721-3.739,4.828-4.045c0,0-5.177,10.093-0.172,16.974c0,0,0.172-3.364,2.588-4.434   c0,0,0.863,6.116,6.213,6.27c0,0-0.345-3.059,0.863-3.976c0,0,2.293,2.431,7.341,1.387c10.342,12.014,27.462,19.875,46.849,19.875   V28.142z"/>
</g></g> </svg>
