<svg width="1001" height="837" viewBox="0 0 1001 837" fill="none" xmlns="http://www.w3.org/2000/svg">
<g clip-path="url(#clip0)">
<path opacity="0.1" d="M319.99 31.27C350.77 3.83995 399.1 -1.73005 443.08 0.42995C581.24 7.29995 705.95 73.9899 813.82 149.43C852.87 176.74 891.32 206.17 916.67 243.78C968.27 320.35 952.97 426.41 881.21 489.48C856.8 510.94 827.21 527.4 796.82 541.98C742.82 567.91 684.51 588.72 623.2 594.65C579.47 598.87 535.2 595.44 491.74 589.54C370.3 573.07 251.09 536.65 151.18 474.34C107.36 447.01 66.0501 413.04 47.9901 368.83C29.9301 324.62 41.4901 268.59 86.2301 242.42C104.74 231.6 126.87 226.71 148.53 222.12C180.42 215.36 212.82 208.7 241.59 194.97C271.31 180.78 306.51 153.34 300.59 121.97C294.31 88.2599 289.24 58.67 319.99 31.27Z" fill="#04B3A8"/>
<path opacity="0.1" d="M967.42 836.99C985.877 836.99 1000.84 834.46 1000.84 831.34C1000.84 828.22 985.877 825.69 967.42 825.69C948.963 825.69 934 828.22 934 831.34C934 834.46 948.963 836.99 967.42 836.99Z" fill="#6C63FF"/>
<path opacity="0.1" d="M393.44 788.01C475.576 788.01 542.16 776.222 542.16 761.68C542.16 747.138 475.576 735.35 393.44 735.35C311.304 735.35 244.72 747.138 244.72 761.68C244.72 776.222 311.304 788.01 393.44 788.01Z" fill="#6C63FF"/>
<path opacity="0.1" d="M792.81 773.12C834.557 773.12 868.4 765.666 868.4 756.47C868.4 747.274 834.557 739.82 792.81 739.82C751.063 739.82 717.22 747.274 717.22 756.47C717.22 765.666 751.063 773.12 792.81 773.12Z" fill="#5480FE"/>
<path d="M974.32 759.99C974.32 759.99 980.46 767.99 971.49 780.13C962.52 792.27 955.13 802.48 958.12 810.03C958.12 810.03 971.65 787.53 982.66 787.21C993.67 786.89 986.42 773.5 974.32 759.99Z" fill="#6C63FF"/>
<path opacity="0.1" d="M974.32 759.99C974.857 760.766 975.281 761.615 975.58 762.51C986.32 775.14 992.05 786.92 981.72 787.21C972.1 787.49 960.55 804.7 957.79 809.04C957.879 809.38 957.989 809.714 958.12 810.04C958.12 810.04 971.65 787.54 982.66 787.22C993.67 786.9 986.42 773.5 974.32 759.99Z" fill="black"/>
<path d="M985.73 770.22C985.73 773.05 985.41 775.33 985.02 775.33C984.63 775.33 984.31 773.05 984.31 770.22C984.31 767.39 984.71 768.73 985.1 768.73C985.49 768.73 985.73 767.4 985.73 770.22Z" fill="#FFD037"/>
<path d="M989.65 773.59C987.17 774.94 985 775.76 984.82 775.42C984.64 775.08 986.49 773.7 988.97 772.35C991.45 771 990.47 771.98 990.66 772.35C990.85 772.72 992.13 772.24 989.65 773.59Z" fill="#FFD037"/>
<path d="M941.91 759.99C941.91 759.99 935.77 767.99 944.74 780.13C953.71 792.27 961.11 802.48 958.12 810.03C958.12 810.03 944.58 787.53 933.57 787.21C922.56 786.89 929.79 773.5 941.91 759.99Z" fill="#6C63FF"/>
<path opacity="0.1" d="M941.91 759.99C941.375 760.766 940.954 761.614 940.66 762.51C929.91 775.14 924.18 786.92 934.51 787.21C944.14 787.49 955.68 804.7 958.44 809.04C958.35 809.38 958.24 809.71 958.12 810.04C958.12 810.04 944.58 787.54 933.57 787.22C922.56 786.9 929.79 773.5 941.91 759.99Z" fill="black"/>
<path d="M930.5 770.22C930.5 773.05 930.82 775.33 931.21 775.33C931.6 775.33 931.92 773.05 931.92 770.22C931.92 767.39 931.52 768.73 931.13 768.73C930.74 768.73 930.5 767.4 930.5 770.22Z" fill="#FFD037"/>
<path d="M926.59 773.59C929.07 774.94 931.23 775.76 931.42 775.42C931.61 775.08 929.74 773.7 927.26 772.35C924.78 771 925.76 771.98 925.58 772.35C925.4 772.72 924.11 772.24 926.59 773.59Z" fill="#FFD037"/>
<path d="M932.42 808.98C932.42 808.98 949.57 808.45 954.74 804.77C959.91 801.09 981.14 796.69 982.42 802.6C983.7 808.51 1008.2 831.97 988.83 832.12C969.46 832.27 943.83 829.12 938.66 825.96C933.49 822.8 932.42 808.98 932.42 808.98Z" fill="#A8A8A8"/>
<path opacity="0.2" d="M989.22 830.07C969.85 830.22 944.22 827.07 939.05 823.91C935.12 821.51 933.55 812.91 933.05 808.96H932.48C932.48 808.96 933.56 822.8 938.72 825.96C943.88 829.12 969.52 832.28 988.89 832.12C994.48 832.12 996.41 830.12 996.31 827.12C995.51 828.92 993.42 830.03 989.22 830.07Z" fill="black"/>
<path opacity="0.1" d="M33.42 794.99C51.8774 794.99 66.84 792.46 66.84 789.34C66.84 786.22 51.8774 783.69 33.42 783.69C14.9626 783.69 0 786.22 0 789.34C0 792.46 14.9626 794.99 33.42 794.99Z" fill="#6C63FF"/>
<path d="M10.9702 763.09C10.9702 763.09 30.0402 762.5 35.7802 758.41C41.5202 754.32 65.1102 749.41 66.5402 756C67.9702 762.59 95.1902 788.63 73.6702 788.81C52.1502 788.99 23.6702 785.45 17.9202 781.96C12.1702 778.47 10.9702 763.09 10.9702 763.09Z" fill="#A8A8A8"/>
<path opacity="0.2" d="M74.0502 786.5C52.5202 786.67 24.0502 783.15 18.3002 779.65C13.9302 776.99 12.1902 767.45 11.6102 763.04H10.9702C10.9702 763.04 12.1802 778.42 17.9702 781.91C23.7602 785.4 52.1902 788.91 73.7202 788.76C79.9302 788.76 82.0802 786.49 81.9602 783.22C81.0402 785.25 78.6702 786.5 74.0502 786.5Z" fill="black"/>
<path d="M156.3 816.69C176.409 816.69 192.71 813.932 192.71 810.53C192.71 807.128 176.409 804.37 156.3 804.37C136.191 804.37 119.89 807.128 119.89 810.53C119.89 813.932 136.191 816.69 156.3 816.69Z" fill="#6C63FF"/>
<path d="M171.35 800.5C173.014 799.146 174.227 797.319 174.83 795.26C175.27 793.18 174.39 790.68 172.4 789.92C170.17 789.07 167.79 790.62 165.99 792.18C164.19 793.74 162.11 795.52 159.75 795.18C160.965 794.078 161.875 792.68 162.39 791.122C162.905 789.564 163.009 787.9 162.69 786.29C162.587 785.626 162.303 785.004 161.87 784.49C160.63 783.16 158.39 783.73 156.87 784.77C152.16 788.09 150.87 794.48 150.82 800.24C150.35 798.16 150.75 796 150.73 793.87C150.71 791.74 150.14 789.38 148.34 788.23C147.22 787.627 145.961 787.331 144.69 787.37C142.58 787.3 140.22 787.51 138.77 789.06C136.98 790.98 137.44 794.21 139 796.33C140.56 798.45 142.94 799.77 145.13 801.23C146.886 802.276 148.384 803.705 149.51 805.41C149.642 805.65 149.752 805.901 149.84 806.16H163.11C166.101 804.656 168.873 802.752 171.35 800.5V800.5Z" fill="#6C63FF"/>
<path d="M412.48 469.54L406.32 467.71L406.61 472.19L420.4 477.46L417.9 470.04L412.48 469.54Z" fill="#6C63FF"/>
<path opacity="0.03" d="M412.48 469.54L406.32 467.71L406.61 472.19L420.4 477.46L417.9 470.04L412.48 469.54Z" fill="black"/>
<path d="M608.63 669.75C661.135 616.589 690.529 544.848 690.42 470.13C690.42 469.33 690.42 468.53 690.42 467.72H406.6L608.63 669.75Z" fill="#6C63FF"/>
<path opacity="0.03" d="M608.63 669.75C661.135 616.589 690.529 544.848 690.42 470.13C690.42 469.33 690.42 468.53 690.42 467.72H406.6L608.63 669.75Z" fill="black"/>
<path d="M615.03 679.03C667.535 625.869 696.929 554.128 696.82 479.41C696.82 478.6 696.82 477.8 696.82 477H413L615.03 679.03Z" fill="#5480FE"/>
<path opacity="0.15" d="M628.03 674.03C680.535 620.869 709.929 549.128 709.82 474.41C709.82 473.6 709.82 472.8 709.82 472H426L628.03 674.03Z" fill="white"/>
<path opacity="0.1" d="M801.48 706.58C801.48 706.58 829.03 692.43 825.48 698.95C821.93 705.47 811.89 708.95 811.89 708.95L801.48 706.58Z" fill="black"/>
<path opacity="0.1" d="M765.55 703.42C765.55 703.42 782.49 704.53 784.72 707.33C784.72 707.33 766.67 703.6 765.55 703.42Z" fill="black"/>
<path opacity="0.1" d="M765.73 709.19C765.73 709.19 781.19 709.75 786.21 711.98C786.21 711.98 769.83 711.42 765.73 709.19Z" fill="black"/>
<path opacity="0.1" d="M613.42 384.5L608.52 382.26C609.65 376.94 609.85 366.38 609.88 364.49C611.29 366.07 612.88 367.41 614.17 367.55C617.54 367.92 613.42 384.5 613.42 384.5Z" fill="black"/>
<path opacity="0.1" d="M776.84 302.5C771.09 304.89 763.84 310.57 763.84 310.57L763.57 295.68C765.08 294.73 766.88 292.12 768.68 290.46C770.91 288.46 774.82 289.35 774.82 289.35L776.5 302.19L776.84 302.5Z" fill="black"/>
<path d="M777.96 300.28C772.21 302.67 764.96 308.35 764.96 308.35L764.72 293.5C766.23 292.56 768.03 289.94 769.83 288.29C772.06 286.24 775.97 287.17 775.97 287.17L777.65 300.02L777.96 300.28Z" fill="#E6EAED"/>
<path opacity="0.1" d="M750.65 522.5C750.65 522.5 759.03 518.03 766.48 519.9L750.65 522.5Z" fill="black"/>
<path opacity="0.1" d="M737.06 510.35C737.06 510.35 750.47 508.3 755.49 510.54L737.06 510.35Z" fill="black"/>
<path opacity="0.1" d="M681.21 373.7C681.21 373.7 679.35 380.4 690.71 383.19L681.21 373.7Z" fill="black"/>
<path opacity="0.1" d="M677.86 385.24C677.86 385.24 691.86 397.71 685.31 398.09C678.76 398.47 677.86 385.24 677.86 385.24Z" fill="black"/>
<path opacity="0.1" d="M708.95 335.16C708.95 335.16 726.08 347.07 724.95 349.87C723.82 352.67 708.95 335.16 708.95 335.16Z" fill="black"/>
<path opacity="0.1" d="M833.32 479.07L827.82 483.5C826.67 479.56 824.29 472.96 820.57 469.5L826.24 466.76L833.32 479.07Z" fill="black"/>
<path opacity="0.1" d="M823.04 434.15C823.04 434.15 800.7 443.46 802.56 446.44C804.42 449.42 823.04 434.15 823.04 434.15Z" fill="black"/>
<path opacity="0.1" d="M823.04 446.06C823.04 446.06 813.75 450.17 814.52 451.48C815.29 452.79 823.04 446.06 823.04 446.06Z" fill="black"/>
<path opacity="0.1" d="M817.83 453.88C817.83 453.88 808.54 457.99 809.31 459.3C810.08 460.61 817.83 453.88 817.83 453.88Z" fill="black"/>
<path d="M413 168V450H696.83C695.54 294.25 569.03 168.32 413 168Z" fill="#5480FE"/>
<path opacity="0.1" d="M403 167V449H686.83C685.54 293.25 559.03 167.32 403 167Z" fill="black"/>
<path d="M103.11 446.6H99.75V450.02H103.11V446.6Z" fill="#6C63FF"/>
<path opacity="0.25" d="M103.11 446.6H99.75V450.02H103.11V446.6Z" fill="black"/>
<path d="M387.73 164.94H384.45V168.75H387.73V164.94Z" fill="#6C63FF"/>
<path opacity="0.25" d="M387.73 164.94H384.45V168.75H387.73V164.94Z" fill="black"/>
<path opacity="0.2" d="M387.76 450.03V168.03H387.17C230.86 168.03 104.02 294.11 102.75 450.12L387.76 450.03Z" fill="white"/>
<path d="M387.76 450.03V168.03H387.17C230.86 168.03 104.02 294.11 102.75 450.12L387.76 450.03Z" fill="#6C63FF"/>
<path opacity="0.25" d="M387.76 450.03V168.03H387.17C230.86 168.03 104.02 294.11 102.75 450.12L387.76 450.03Z" fill="black"/>
<path d="M385.01 447V165H384.42C228.11 165 101.27 291.08 100 447.09L385.01 447Z" fill="#5480FE"/>
<path opacity="0.15" d="M400.01 446V164H399.42C243.11 164 116.27 290.08 115 446.09L400.01 446Z" fill="black"/>
<path d="M594.55 677.37L598.74 680V685L593.05 684.12L594.55 677.37Z" fill="#6C63FF"/>
<path opacity="0.1" d="M594.55 677.37L598.74 680V685L593.05 684.12L594.55 677.37Z" fill="black"/>
<path d="M194.92 679.37L193.35 679.84V684.84L198.67 683.68L197.36 678.81L194.92 679.37Z" fill="#6C63FF"/>
<path opacity="0.1" d="M194.92 679.37L193.35 679.84V684.84L198.67 683.68L197.36 678.81L194.92 679.37Z" fill="black"/>
<path d="M399.69 485.96L193.35 684.84C219.803 711.741 251.345 733.11 286.137 747.701C320.93 762.292 358.278 769.814 396.007 769.829C433.735 769.844 471.089 762.351 505.893 747.787C540.698 733.224 572.256 711.88 598.73 685L399.69 485.96Z" fill="#6C63FF"/>
<path d="M399.69 480.96L193.35 679.84C219.803 706.741 251.345 728.11 286.137 742.701C320.93 757.292 358.278 764.814 396.007 764.829C433.735 764.844 471.089 757.351 505.893 742.787C540.698 728.224 572.256 706.88 598.73 680L399.69 480.96Z" fill="#6C63FF"/>
<path opacity="0.1" d="M399.69 480.96L193.35 679.84C219.803 706.741 251.345 728.11 286.137 742.701C320.93 757.292 358.278 764.814 396.007 764.829C433.735 764.844 471.089 757.351 505.893 742.787C540.698 728.224 572.256 706.88 598.73 680L399.69 480.96Z" fill="black"/>
<path d="M399.69 485.96L193.35 684.84C219.803 711.741 251.345 733.11 286.137 747.701C320.93 762.292 358.278 769.814 396.007 769.829C433.735 769.844 471.089 762.351 505.893 747.787C540.698 733.224 572.256 711.88 598.73 685L399.69 485.96Z" fill="#5480FE"/>
<path d="M382.99 475.06L389.86 470.36L390.86 472.36L383.02 478.09L382.99 475.06Z" fill="#3ACC6C"/>
<path opacity="0.1" d="M382.99 475.06L389.86 470.36L390.86 472.36L383.02 478.09L382.99 475.06Z" fill="black"/>
<path d="M378.11 468.03L385.36 465.36L386.36 467.36L373.99 471.53L378.11 468.03Z" fill="#FF748E"/>
<path opacity="0.1" d="M378.11 468.03L385.36 465.36L386.36 467.36L373.99 471.53L378.11 468.03Z" fill="black"/>
<path d="M377.2 459.28L384.86 458.86V460.86L371.99 462.21L373.14 459.62L377.2 459.28Z" fill="#5E5A6B"/>
<path opacity="0.1" d="M377.2 459.28L384.86 458.86V460.86L371.99 462.21L373.14 459.62L377.2 459.28Z" fill="black"/>
<path d="M384.86 458.86L107.51 522.02C103.172 502.061 100.99 481.695 101 461.27C101 460.46 101 459.66 101 458.86H384.86Z" fill="#5E5A6B"/>
<path opacity="0.1" d="M384.86 458.86L107.51 522.02C103.172 502.061 100.99 481.695 101 461.27C101 460.46 101 459.66 101 458.86H384.86Z" fill="black"/>
<path d="M384.86 460.86L107.51 524.02C103.172 504.061 100.99 483.695 101 463.27C101 462.46 101 461.66 101 460.86H384.86Z" fill="#5E5A6B"/>
<path d="M108.01 528.5C113.853 555.364 123.596 581.228 136.93 605.27L385.36 465.36L108.01 528.5Z" fill="#FF748E"/>
<path opacity="0.1" d="M108.01 528.5C113.853 555.364 123.596 581.228 136.93 605.27L385.36 465.36L108.01 528.5Z" fill="black"/>
<path d="M109.01 530.5C114.853 557.364 124.596 583.228 137.93 607.27L386.36 467.36L109.01 530.5Z" fill="#FC6681"/>
<path d="M389.31 470.38L141.31 610.07L141.43 610.29C153.99 633.007 169.602 653.898 187.83 672.38L389.83 470.38H389.31Z" fill="#3ACC6C"/>
<path opacity="0.1" d="M389.31 470.38L141.31 610.07L141.43 610.29C153.99 633.007 169.602 653.898 187.83 672.38L389.83 470.38H389.31Z" fill="black"/>
<path d="M390.31 472.38L142.31 612.07L142.43 612.29C154.99 635.007 170.602 655.898 188.83 674.38L390.83 472.38H390.31Z" fill="#57B894"/>
</g>
<defs>
<clipPath id="clip0">
<rect width="1000.85" height="836.99" fill="white"/>
</clipPath>
</defs>
</svg>
