<svg height="512pt" viewBox="0 -22 512 512" width="512pt" xmlns="http://www.w3.org/2000/svg"><path d="m359.445312 152.554688h91.617188c33.65625 0 60.9375-27.285157 60.9375-60.9375v-82.738282c0-4.902344-3.976562-8.878906-8.878906-8.878906h-82.738282c-33.652343 0-60.9375 27.28125-60.9375 60.9375zm0 0" fill="#ffc7e7"/><path d="m482.859375 0v91.617188c0 33.652343-27.285156 60.9375-60.9375 60.9375h29.140625c33.65625 0 60.9375-27.285157 60.9375-60.9375v-82.738282c0-4.902344-3.976562-8.878906-8.878906-8.878906zm0 0" fill="#ff94d2"/><path d="m359.445312 152.554688h39.152344c27.128906 0 49.117188-21.992188 49.117188-49.121094v-30.078125c0-5.011719-4.058594-9.070313-9.070313-9.070313h-30.078125c-27.128906 0-49.121094 21.988282-49.121094 49.117188zm0 0" fill="#e779b5"/><path d="m152.554688 152.554688h-91.617188c-33.65625 0-60.9375-27.285157-60.9375-60.9375v-82.738282c0-4.902344 3.976562-8.878906 8.878906-8.878906h82.738282c33.652343 0 60.9375 27.28125 60.9375 60.9375zm0 0" fill="#ffc7e7"/><path d="m152.554688 152.554688v-91.617188c0-2.609375-.183594-5.171875-.5-7.695312-31.648438 11.230468-58.699219 33.199218-76.355469 62.242187-7.003907 11.527344-13.710938 23.859375-20.011719 36.828125 1.730469.148438 3.476562.238281 5.25.238281h91.617188zm0 0" fill="#ff94d2"/><path d="m152.554688 152.554688h-39.152344c-27.128906 0-49.117188-21.992188-49.117188-49.121094v-30.078125c0-5.011719 4.058594-9.070313 9.070313-9.070313h30.078125c27.128906 0 49.121094 21.988282 49.121094 49.117188zm0 0" fill="#e779b5"/><path d="m122.074219 67.953125c-18.679688 11.984375-34.613281 28.1875-46.375 47.53125-2.039063 3.355469-4.050781 6.792969-6.039063 10.28125 8.128906 15.898437 24.660156 26.789063 43.742188 26.789063h39.152344v-39.152344c0-20.527344-12.601563-38.105469-30.480469-45.449219zm0 0" fill="#e25ca5"/><path d="m321.902344 63.808594c-44.554688-8.714844-89.105469-8.589844-133.664063.367187-40.105469 8.0625-74.96875 32.789063-96.21875 67.746094-32.980469 54.25-59.390625 126.207031-67.503906 199.65625-6.539063 59.234375 33.617187 113.574219 92.207031 124.449219 92.851563 17.234375 185.703125 17.234375 278.550782 0 58.59375-10.875 98.75-65.214844 92.210937-124.449219-8.042969-72.835937-34.085937-144.203125-66.679687-198.296875-21.738282-36.074219-57.5625-61.390625-98.902344-69.472656zm0 0" fill="#ffc7e7"/><path d="m487.484375 331.578125c-8.042969-72.835937-34.085937-144.203125-66.679687-198.292969-21.738282-36.078125-57.5625-61.394531-98.902344-69.476562-29.621094-5.792969-59.246094-7.65625-88.871094-5.636719 14.25.976563 28.496094 2.847656 42.742188 5.636719 41.339843 8.082031 77.164062 33.398437 98.902343 69.476562 32.59375 54.089844 58.636719 125.457032 66.679688 198.292969 6.539062 59.234375-33.617188 113.574219-92.207031 124.449219-38.738282 7.191406-77.476563 11.371094-116.214844 12.5625 54.117187 1.664062 108.226562-2.519532 162.34375-12.5625 58.589844-10.875 98.746094-65.214844 92.207031-124.449219zm0 0" fill="#ff94d2"/><path d="m191.152344 226.605469h-1.3125c-9.054688 0-16.398438-7.339844-16.398438-16.398438v-16.535156c0-9.058594 7.34375-16.398437 16.398438-16.398437h1.3125c9.054687 0 16.398437 7.339843 16.398437 16.398437v16.535156c0 9.058594-7.34375 16.398438-16.398437 16.398438zm0 0" fill="#333d3d"/><path d="m322.160156 226.605469h-1.3125c-9.054687 0-16.398437-7.339844-16.398437-16.398438v-16.535156c0-9.058594 7.34375-16.398437 16.398437-16.398437h1.3125c9.054688 0 16.398438 7.339843 16.398438 16.398437v16.535156c0 9.058594-7.34375 16.398438-16.398438 16.398438zm0 0" fill="#333d3d"/><path d="m297.402344 347.652344h-82.800782c-18.433593 0-31.503906-17.984375-25.8125-35.515625l10.855469-33.4375c4.578125-14.101563 17.71875-23.652344 32.546875-23.652344h47.617188c14.828125 0 27.96875 9.550781 32.550781 23.652344l10.855469 33.4375c5.6875 17.53125-7.378906 35.515625-25.8125 35.515625zm0 0" fill="#e779b5"/><path d="m323.210938 312.136719-10.855469-33.4375c-4.578125-14.101563-17.71875-23.652344-32.546875-23.652344h-29.601563c14.828125 0 27.96875 9.550781 32.546875 23.652344l10.855469 33.4375c5.691406 17.53125-7.378906 35.515625-25.808594 35.515625h29.601563c18.433594 0 31.5-17.984375 25.808594-35.515625zm0 0" fill="#e25ca5"/><path d="m267.867188 391.816406h-23.734376c-15.773437 0-28.558593-12.785156-28.558593-28.554687v-15.609375h80.851562v15.609375c0 15.769531-12.785156 28.554687-28.558593 28.554687zm0 0" fill="#e779b5"/><path d="m266.382812 347.652344h-50.808593v11.53125h36.714843c7.894532 0 12.878907 8.421875 9.160157 15.382812-3.910157 7.328125-9.941407 13.351563-17.28125 17.25h23.699219c15.773437 0 28.558593-12.785156 28.558593-28.554687v-15.609375zm0 0" fill="#e25ca5"/><g fill="#333d3d"><path d="m233.148438 318.550781c-4.265626 0-7.722657-3.460937-7.722657-7.726562v-14.78125c0-4.265625 3.457031-7.726563 7.722657-7.726563 4.269531 0 7.726562 3.460938 7.726562 7.726563v14.78125c.003906 4.265625-3.457031 7.726562-7.726562 7.726562zm0 0"/><path d="m278.847656 318.550781c-4.265625 0-7.726562-3.460937-7.726562-7.726562v-14.78125c0-4.265625 3.460937-7.726563 7.726562-7.726563 4.269532 0 7.726563 3.460938 7.726563 7.726563v14.78125c0 4.265625-3.457031 7.726562-7.726563 7.726562zm0 0"/></g></svg>