<svg xmlns="http://www.w3.org/2000/svg" width="71.349" height="54.348" viewBox="0 0 71.349 54.348"><path d="M91,300v12.542h45.986V300Zm0,0" transform="translate(-78.319 -258.194)" fill="#c6c6c6"/><path d="M256,300h22.993v12.542H256Zm0,0" transform="translate(-220.326 -258.194)" fill="#c6c6c6"/><path d="M135.9,101.037l-3.386,6.605H92.886L89.5,101.037C94.475,94.139,103.129,90,112.7,90S130.93,94.139,135.9,101.037Zm0,0" transform="translate(-77.028 -77.458)" fill="#ff4b00"/><path d="M279.2,101.037l-3.386,6.605H256V90C265.573,90,274.227,94.139,279.2,101.037Zm0,0" transform="translate(-220.326 -77.458)" fill="#cc1e0d"/><path d="M96.521,80.847,88.7,107.435H42.716L34.9,80.847l5.268-2.006a14.733,14.733,0,0,0,10.661,7.692H53c4.808-.752,8.4-8.11,9.866-15.134h5.686c1.463,7.024,5.059,14.382,9.866,15.134h2.174a14.733,14.733,0,0,0,10.66-7.692Zm0,0" transform="translate(-30.035 -61.449)" fill="#c6c5c4"/><path d="M286.811,80.847l-7.818,26.589H256V71.4h2.843c1.464,7.024,5.059,14.382,9.866,15.134h2.174a14.733,14.733,0,0,0,10.661-7.692Zm0,0" transform="translate(-220.326 -61.449)" fill="rgba(198,198,198,0.99)"/><path d="M6.41,72.542A6.272,6.272,0,1,1,6.41,60a6.271,6.271,0,1,1,0,12.542Zm0,0" transform="translate(0 -51.639)" fill="#8d8a8a"/><path d="M427.271,72.542a6.271,6.271,0,0,1,0-12.542,6.272,6.272,0,1,1,0,12.542Zm0,0" transform="translate(-362.332 -51.639)" fill="#8d8a8a"/><path d="M217.271,0a6.271,6.271,0,1,0,6.271,6.271A6.262,6.262,0,0,0,217.271,0Zm0,0" transform="translate(-181.597)" fill="#8d8a8a"/><path d="M211.848,173.7l-7.149,7.149L211.848,188,219,180.848Zm0,0" transform="translate(-176.174 -149.494)" fill="#ff4b00"/><path d="M327.745,233.785l2.956,2.956-2.956,2.956-2.956-2.956Zm0,0" transform="translate(-279.529 -201.206)" fill="#cc1e0d"/><path d="M147.745,233.785l2.956,2.956-2.956,2.956-2.956-2.956Zm0,0" transform="translate(-124.612 -201.206)" fill="#ff4b00"/><path d="M256,12.542V0a6.271,6.271,0,0,1,0,12.542Zm0,0" transform="translate(-220.326)" fill="#8d8a8a"/><path d="M263.149,180.848,256,188V173.7Zm0,0" transform="translate(-220.326 -149.494)" fill="#cc1e0d"/></svg>