<svg id="Layer_1" height="512" viewBox="0 0 512 512" width="512" xmlns="http://www.w3.org/2000/svg" data-name="Layer 1"><path d="m477.63 83.93a12.049 12.049 0 1 1 -12.7 11.36 12.047 12.047 0 0 1 12.7-11.36z" fill="#00efd1"/><path d="m481.69 211.81c1.83 32.12-25.28 61.79-59.34 65.29l-6.07 29.93c-13.02 58.36-74.36 129.05-181.57 133.39 0 0-114.3 2.64-186.4-5.69s32.7-40.8 32.7-40.8l88.06-25.4a91.026 91.026 0 0 0 13.21-2.93c22.08-4.03 91.03-19.84 136.1-66.12v-.01c17.98-18.47 32.16-41.79 38.03-71.16a64.013 64.013 0 0 1 -1.22-9.27 63.353 63.353 0 0 1 126.5-7.23zm-48.23-7.26a13.15 13.15 0 1 0 -13.15 13.15 13.153 13.153 0 0 0 13.15-13.15z" fill="#fedb41"/><circle cx="420.31" cy="204.55" fill="#00efd1" r="13.15"/><path d="m425.82 79.36a12.048 12.048 0 1 1 -15.28-7.54 12.049 12.049 0 0 1 15.28 7.54z" fill="#00efd1"/><path d="m182.28 365.6c-4.51.82-7.06 1.15-7.06 1.15l-6.15 1.78a90.723 90.723 0 0 1 -43.86-4.45 114.054 114.054 0 0 1 -68.8-145.88c26.61-74.11 107.86-111.49 182.36-86.01 60.91 20.85 96.67 112.96 79.61 167.28v.01c-45.07 46.28-114.02 62.09-136.1 66.12z" fill="#00acea"/><g fill="#083863"><path d="m47.621 440.69c44.373 5.127 105.108 6.112 145.221 6.112 24.688 0 41.569-.374 42.007-.384h.1c50.026-2.025 94.883-18.567 129.724-47.838 29.194-24.528 50.137-57.419 57.461-90.241.008-.038.016-.076.023-.114l5.221-25.744a73.8 73.8 0 0 0 42.534-23.251c12.433-13.656 18.742-30.617 17.766-47.76a69.212 69.212 0 0 0 -27.4-51.276c-.01-.2-.029-.4-.058-.595-2.579-17.3 1.553-31.963 12.946-46.011a17.941 17.941 0 0 0 2.786.4c.34.019.677.028 1.013.028a18.115 18.115 0 1 0 -14.079-6.789c-10.856 13.866-15.91 28.78-15.338 45.291a68.823 68.823 0 0 0 -25.58-6.337c-5.72-17.306-7.06-31.464-4.305-45.2a18.006 18.006 0 0 0 13.837-23.55 18.049 18.049 0 1 0 -25.69 21.643c-3.5 18.189-.186 34.937 3.716 47.6a69.324 69.324 0 0 0 -59.235 81.616 131.665 131.665 0 0 1 -21.958 49.953c1.736-23.877-3.454-51.359-15.037-77.4-16.5-37.093-42.954-64.184-72.585-74.327a151.242 151.242 0 0 0 -113.624 5.9 146.53 146.53 0 0 0 -76.324 83.758 120.054 120.054 0 0 0 72.418 153.554 97.08 97.08 0 0 0 9.874 2.943l-53.708 15.5-.113.034c-.615.191-15.244 4.74-29.993 10.947-23.375 9.836-33.007 17.707-32.207 26.318.966 10.405 16.004 13.53 30.587 15.22zm423.299-345.066a6.056 6.056 0 0 1 6.033-5.713c.114 0 .229 0 .344.01a6.047 6.047 0 0 1 5.703 6.379 6.049 6.049 0 1 1 -12.079-.672zm-58.45-18.124a5.993 5.993 0 0 1 1.935-.321 6.049 6.049 0 0 1 1.946 11.779 6.049 6.049 0 0 1 -3.881-11.458zm-285.233 280.933a108.051 108.051 0 0 1 -65.179-138.2 134.608 134.608 0 0 1 70.117-76.945 139.3 139.3 0 0 1 104.651-5.416c57.038 19.524 91.45 106.637 76.225 158.465-26.725 26.933-62.119 43.15-90.3 52.557a97.275 97.275 0 0 0 24.82-37.821 79 79 0 0 0 -47.65-101.046 64.4 64.4 0 0 0 -82.362 38.85 52.715 52.715 0 0 0 31.8 67.436 43.373 43.373 0 0 0 55.473-26.17 35.889 35.889 0 0 0 -21.657-45.914 29.9 29.9 0 0 0 -38.275 18.046 6 6 0 0 0 11.3 4.05 17.9 17.9 0 0 1 22.915-10.807 23.888 23.888 0 0 1 14.419 30.566 31.373 31.373 0 0 1 -40.125 18.929 40.717 40.717 0 0 1 -24.559-52.087 52.4 52.4 0 0 1 67.013-31.61 67 67 0 0 1 40.412 85.7 85.664 85.664 0 0 1 -55.434 52.751c-4.041.728-6.368 1.034-6.39 1.037a5.977 5.977 0 0 0 -.9.186l-5.747 1.658a85.3 85.3 0 0 1 -40.567-4.215zm-71.16 50.867c13.023-5.338 25.733-9.334 26.656-9.622l87.667-25.287a97.351 97.351 0 0 0 13.232-2.94c21.241-3.9 92.638-20.133 139.045-67.785.067-.069.133-.141.2-.213 20.587-21.22 33.849-46.1 39.418-73.967a6.009 6.009 0 0 0 -.007-2.386 58.137 58.137 0 0 1 -1.106-8.4 57.353 57.353 0 0 1 114.518-6.549c1.64 28.8-23.072 55.806-53.964 58.98a6 6 0 0 0 -5.266 4.777l-6.059 29.873c-6.771 30.284-26.252 60.754-53.454 83.608-32.776 27.536-75.112 43.108-122.436 45.034-2.956.065-115.237 2.467-185.522-5.653-13.113-1.517-17.906-3.625-19.532-4.644 1.49-1.841 6.99-6.783 26.61-14.826z"/><path d="m420.31 223.7a19.15 19.15 0 1 0 -19.15-19.15 19.172 19.172 0 0 0 19.15 19.15zm0-26.3a7.15 7.15 0 1 1 -7.15 7.15 7.158 7.158 0 0 1 7.15-7.15z"/></g></svg>