<svg id="Capa_1" enable-background="new 0 0 497 497" height="512" viewBox="0 0 497 497" width="512" xmlns="http://www.w3.org/2000/svg"><path d="m42.007 283.297s3.296 35.406-17.175 74.273c-8.23 15.625-6.553 34.628 4.138 48.684 11.72 15.409 31.882 21.736 50.308 15.796 30.998-9.993 76.93-32.492 104.669-81.77z" fill="#80dfb5"/><path d="m454.993 283.297s-3.296 35.406 17.175 74.273c8.23 15.625 6.553 34.628-4.138 48.684-11.72 15.409-31.882 21.736-50.308 15.796-30.998-9.993-76.93-32.492-104.669-81.77z" fill="#80dfb5"/><path d="m454.993 283.297v-36.717s-17.785-122.656-143.497-138.456h-125.992c-125.713 15.8-143.497 138.456-143.497 138.456v36.717l206.493 32.974z" fill="#e3986d"/><path d="m72.007 272.153c0-37.399 11.939-73.984 34.777-103.601 21.359-27.698 55.292-53.714 108.72-60.429h95.994-.001-125.993c-125.713 15.801-143.497 138.457-143.497 138.457v36.717z" fill="#c76d33"/><path d="m454.993 283.297-141.94 56.982c5.623 9.99 12.003 18.863 18.846 26.771 39.498-2.967 85.989-10.65 132.116-27.869-11.333-30.97-9.022-55.884-9.022-55.884z" fill="#00c67f"/><path d="m32.984 339.181c46.128 17.219 92.619 24.902 132.116 27.869 6.843-7.908 13.223-16.78 18.846-26.771l-141.94-56.982c.001 0 2.312 24.914-9.022 55.884z" fill="#00c67f"/><path d="m494.204 260.754c-6.913-14.741-24.469-21.088-39.21-14.174-92.503 43.38-202.04 31.594-203.135 31.47-.137-.016-.273-.022-.41-.036-.235-.024-.471-.044-.708-.062-.25-.019-.5-.035-.75-.048-.249-.013-.499-.021-.75-.028-.248-.006-.495-.01-.742-.01s-.494.004-.742.01c-.25.006-.5.015-.75.028-.249.013-.499.029-.75.048-.237.018-.472.038-.708.062-.137.014-.273.02-.41.036-1.095.124-110.632 11.91-203.135-31.47-14.741-6.914-32.297-.567-39.21 14.174-6.913 14.742-.567 32.298 14.175 39.21 69.672 32.675 145.066 38.698 191.194 38.698 19.679 0 34.027-1.096 40.335-1.688 6.308.592 20.656 1.688 40.335 1.688 46.128 0 121.522-6.023 191.194-38.698 14.744-6.913 21.09-24.468 14.177-39.21z" fill="#e6e6e6"/><path d="m32.796 271.844c4.403-10.901 13.123-17.839 22.683-19.374-4.521-1.841-9.017-3.8-13.473-5.89-14.741-6.914-32.297-.567-39.21 14.174-6.913 14.742-.567 32.297 14.175 39.21 6.66 3.124 13.372 5.999 20.106 8.653-7.281-9.905-9.352-24.216-4.281-36.773z" fill="#c5c3c9"/><path d="m248.5 350.16c-221.339 0-157.859-277.415 0-277.415s221.339 277.415 0 277.415z" fill="#80dfb5"/><path d="m263.5 73.602c-4.898-.561-9.899-.856-15-.856-157.859 0-221.339 277.415 0 277.415 5.154 0 10.153-.151 15-.445-196.603-11.918-143.133-259.728 0-276.114z" fill="#00c67f"/><path d="m177.769 273.939c-4.142 0-7.5-3.358-7.5-7.5v-12.801c0-4.142 3.358-7.5 7.5-7.5s7.5 3.358 7.5 7.5v12.801c0 4.142-3.358 7.5-7.5 7.5z" fill="#423e4f"/><path d="m319.23 273.939c-4.142 0-7.5-3.358-7.5-7.5v-12.801c0-4.142 3.358-7.5 7.5-7.5s7.5 3.358 7.5 7.5v12.801c0 4.142-3.358 7.5-7.5 7.5z" fill="#423e4f"/><path d="m248.5 280.772c-8.968 0-17.389-3.75-23.104-10.288-2.726-3.119-2.408-7.857.711-10.583 3.118-2.725 7.856-2.408 10.583.711 2.866 3.279 7.17 5.16 11.81 5.16s8.944-1.881 11.811-5.16c2.725-3.119 7.464-3.437 10.583-.71 3.119 2.726 3.437 7.464.71 10.583-5.715 6.537-14.136 10.287-23.104 10.287z" fill="#423e4f"/><g fill="#00c67f"><path d="m313.242 149.905-4.765-4.368c-6.296-5.771-15.269-7.585-23.312-4.711l-3.925 1.402c-9.165 3.274-15.283 11.957-15.283 21.689v6.461c0 10.67 7.329 19.943 17.71 22.409l7.352 1.746c12.229 2.904 24.528-4.532 27.638-16.711l1.338-5.241c2.1-8.225-.495-16.939-6.753-22.676z"/><path d="m222.646 179.722-6.255-5.195c-4.818-4.001-11.342-5.273-17.31-3.374l-1.019.324c-9.191 2.924-14.556 12.458-12.286 21.832l1.604 6.623c2.175 8.981 10.682 14.95 19.868 13.939l5.67-.624c9.313-1.025 16.363-8.894 16.363-18.263v-1.128c-.001-5.464-2.432-10.644-6.635-14.134z"/><path d="m244.095 124.01c-.116-5.097-3.008-9.724-7.539-12.062l-3.375-1.742c-5.661-2.921-12.582-1.63-16.809 3.135l-5.995 6.759c-4.29 4.837-4.689 11.99-.963 17.273 3.696 5.24 10.491 7.281 16.463 4.943l9.401-3.68c5.448-2.133 8.982-7.442 8.849-13.29z"/></g></svg>