<svg
  xmlns="http://www.w3.org/2000/svg"
  xmlns:xlink="http://www.w3.org/1999/xlink" width="925.18" height="770" viewBox="0 0 925.18 770">
  <defs>
    <linearGradient id="linear-gradient" x1="0.5" y1="1" x2="0.5" gradientUnits="objectBoundingBox">
      <stop offset="0" stop-color="gray" stop-opacity="0.251"/>
      <stop offset="0.54" stop-color="gray" stop-opacity="0.122"/>
      <stop offset="1" stop-color="gray" stop-opacity="0.102"/>
    </linearGradient>
    <linearGradient id="linear-gradient-2" x1="0.5" x2="0.5" y2="1" gradientUnits="objectBoundingBox">
      <stop offset="0" stop-color="#e0e0e0"/>
      <stop offset="0.31" stop-color="#fccc63"/>
      <stop offset="0.77" stop-color="#f55f44"/>
    </linearGradient>
    <linearGradient id="linear-gradient-3" x1="0.5" y1="0" x2="0.5" y2="1" xlink:href="#linear-gradient-2"/>
    <linearGradient id="linear-gradient-6" x1="0.5" x2="0.5" y2="0" xlink:href="#linear-gradient"/>
    <linearGradient id="linear-gradient-7" x1="0.5" x2="0.5" y2="1" gradientUnits="objectBoundingBox">
      <stop offset="0" stop-color="#f2f2f2"/>
      <stop offset="0.31" stop-color="#e6e6e6"/>
      <stop offset="0.77" stop-color="#ccc"/>
    </linearGradient>
    <linearGradient id="linear-gradient-11" x1="0.5" y1="0.001" x2="0.5" y2="1" xlink:href="#linear-gradient-7"/>
    <linearGradient id="linear-gradient-12" x1="0.5" y1="0" x2="0.5" y2="1" xlink:href="#linear-gradient-7"/>
    <linearGradient id="linear-gradient-13" x1="0.5" y1="0" x2="0.5" y2="1" xlink:href="#linear-gradient-7"/>
    <linearGradient id="linear-gradient-14" x1="0.5" y1="0" x2="0.5" y2="1" xlink:href="#linear-gradient-7"/>
    <linearGradient id="linear-gradient-15" x1="0.5" y1="0" x2="0.5" y2="1" xlink:href="#linear-gradient-7"/>
    <linearGradient id="linear-gradient-18" x1="0.5" x2="0.5" y2="0" xlink:href="#linear-gradient"/>
    <linearGradient id="linear-gradient-19" x1="0.5" x2="0.5" y2="1" gradientUnits="objectBoundingBox">
      <stop offset="0" stop-color="#f2f2f2"/>
      <stop offset="0.31" stop-color="#e0e0e0"/>
      <stop offset="0.77" stop-color="#b3b3b3"/>
    </linearGradient>
    <linearGradient id="linear-gradient-21" x1="0.5" y1="0" x2="0.5" y2="1" xlink:href="#linear-gradient-7"/>
    <linearGradient id="linear-gradient-22" x1="0.5" y1="0.999" x2="0.5" y2="-0.001" xlink:href="#linear-gradient"/>
    <linearGradient id="linear-gradient-24" x1="0.501" y1="1.001" x2="0.501" y2="0.001" xlink:href="#linear-gradient"/>
  </defs>
  <g id="rocket" transform="translate(0 -0.05)">
    <g id="Group_11" class="cloud" data-name="Group 11" opacity="0.7">
      <path id="Path_19" data-name="Path 19" d="M822,737.93h0A83,83,0,0,0,657.12,752v1.22h0a76.609,76.609,0,0,0-9.1,1.95,75.84,75.84,0,0,0-142.6-12.91,75,75,0,0,0-20.92-4.78h0a82.38,82.38,0,0,0-5.71-18.85,75.8,75.8,0,0,0-151.12-2A82.451,82.451,0,0,0,320.25,743h0a75.88,75.88,0,0,0-43.49,92H884.34A75.86,75.86,0,0,0,822,737.93Z" transform="translate(-137.41 -64.95)" fill="url(#linear-gradient-6)"/>
    </g>
    <circle id="Ellipse_5" class="cloud" data-name="Ellipse 5" cx="72.83" cy="72.83" r="72.83" transform="translate(199.88 586.52)" fill="url(#linear-gradient-7)"/>
    <circle id="Ellipse_6" class="cloud"  data-name="Ellipse 6" cx="79.75" cy="79.75" r="79.75" transform="translate(192.6 606.91)" fill="url(#linear-gradient-7)"/>
    <circle id="Ellipse_7" class="cloud"  data-name="Ellipse 7" cx="79.75" cy="79.75" r="79.75" transform="translate(516.7 606.91)" fill="url(#linear-gradient-7)"/>
    <circle id="Ellipse_8" class="cloud"  data-name="Ellipse 8" cx="72.83" cy="72.83" r="72.83" transform="translate(519.61 620.75)" fill="url(#linear-gradient-7)"/>
    <path id="Path_20" class="cloud"  data-name="Path 20" d="M647.55,772.37a72.7,72.7,0,0,1-30.12,59H532a72.86,72.86,0,1,1,115.54-59Z" transform="translate(-137.41 -64.95)" fill="url(#linear-gradient-11)"/>
    <path id="Path_21" class="cloud"  data-name="Path 21" d="M555.06,810.24a72.5,72.5,0,0,1-3.12,21.12H412.51v-.05a72.83,72.83,0,0,1,69.28-93.9h.45q3.06,0,6.07.25a72.072,72.072,0,0,1,20.09,4.59A72.85,72.85,0,0,1,555.06,810.24Z" transform="translate(-137.41 -64.95)" fill="url(#linear-gradient-12)"/>
    <path id="Path_22" class="cloud"  data-name="Path 22" d="M737.87,824.81q0,3.27-.29,6.47a.181.181,0,0,1,0,.09H592.5c-.2-2.16-.3-4.35-.3-6.55a72.76,72.76,0,0,1,61.92-72A73.766,73.766,0,0,1,665,752c1.86,0,3.71.07,5.54.2a72.89,72.89,0,0,1,60.9,42.74c.3.66.59,1.33.86,2a72.48,72.48,0,0,1,5.57,27.87Z" transform="translate(-137.41 -64.95)" fill="url(#linear-gradient-13)"/>
    <path id="Path_23"  class="cloud" data-name="Path 23" d="M875.52,810.24a72.5,72.5,0,0,1-3.12,21.12H733a73.292,73.292,0,0,1-1.87-34.54c.12-.63.24-1.27.38-1.89a72.86,72.86,0,0,1,71.22-57.51c2.29,0,4.54.1,6.77.32,1,.08,2,.2,3,.33A72.84,72.84,0,0,1,875.52,810.24Z" transform="translate(-137.41 -64.95)" fill="url(#linear-gradient-14)"/>
    <path id="Path_24" class="cloud"  data-name="Path 24" d="M428.13,831.37c.24-.76.45-1.52.66-2.29A72.88,72.88,0,0,0,339,740a69.469,69.469,0,0,0-8.51,2.94,72.9,72.9,0,0,0-41.78,88.4H428.13Z" transform="translate(-137.41 -64.95)" fill="url(#linear-gradient-15)"/>
  </g>
</svg>
